<?xml version="1.0" encoding="UTF-8"?>
<svg version="1.1" xmlns="http://www.w3.org/2000/svg" width="231" height="171">
<path d="M0 0 C1.36125 0.2784375 1.36125 0.2784375 2.75 0.5625 C8.17375579 1.36767612 13.58253845 0.57821839 19 0 C19 0.66 19 1.32 19 2 C20.546875 2.8353125 20.546875 2.8353125 22.125 3.6875 C25.8062356 5.7921256 28.83037485 8.18255542 32 11 C32.70253906 11.50015625 33.40507812 12.0003125 34.12890625 12.515625 C37.07209689 16.42349399 36.67653488 20.4814461 36.75 25.25 C36.77964844 26.18585937 36.80929688 27.12171875 36.83984375 28.0859375 C36.91039804 30.39071092 36.96316252 32.69448168 37 35 C36.34 35 35.68 35 35 35 C34.67 36.98 34.34 38.96 34 41 C39.15264772 40.40546372 42.65202764 39.46748273 47 36.75 C49 36 49 36 51 36.75 C51.99 37.36875 51.99 37.36875 53 38 C54.33163987 38.67004289 55.66521635 39.33624189 57 40 C73.62337565 48.74288451 73.62337565 48.74288451 77 57 C77.05932617 59.04296875 77.05932617 59.04296875 76.79296875 61.1875 C76.6547168 62.35925781 76.6547168 62.35925781 76.51367188 63.5546875 C76.3522168 64.76511719 76.3522168 64.76511719 76.1875 66 C76.09146484 66.80695313 75.99542969 67.61390625 75.89648438 68.4453125 C74.92510932 76.34669887 74.92510932 76.34669887 74 79 C73.01 79.66 72.02 80.32 71 81 C70.690625 81.680625 70.38125 82.36125 70.0625 83.0625 C69.711875 83.701875 69.36125 84.34125 69 85 C67.66768185 85.33736811 66.33417294 85.67004325 65 86 C63.68555926 86.85117712 62.37329693 87.70572212 61.0625 88.5625 C55.47867519 91.47653225 50.16062116 91.4577806 44 91.4375 C43.05519775 91.43500244 42.11039551 91.43250488 41.13696289 91.42993164 C34.28048688 91.28048688 34.28048688 91.28048688 32 89 C27.59974918 85.26645385 22.82236322 82.15187139 18 79 C23.22183097 85.39975167 23.22183097 85.39975167 30 90 C30.33 90.99 30.66 91.98 31 93 C31.97850195 94.02104551 32.97980427 95.0206121 34 96 C36.80997518 100.21496277 36.13990503 103.51100225 35.875 108.4375 C35.85179687 109.29666016 35.82859375 110.15582031 35.8046875 111.04101562 C35.49293742 117.31985714 35.49293742 117.31985714 33.26171875 120.3984375 C30.86306372 122.09696697 28.47335443 123.69964574 25.9375 125.1875 C25.08027344 125.69667969 24.22304687 126.20585937 23.33984375 126.73046875 C17.5415444 129.87645754 11.43674468 129.55739307 5 129 C2.02142525 128.05914087 -0.38012317 126.67556957 -3 125 C-3.63808594 124.67644531 -4.27617188 124.35289062 -4.93359375 124.01953125 C-8.95196437 121.97275204 -11.328027 120.22910817 -13 116 C-13.08967728 113.66839059 -13.0777346 111.33203812 -13 109 C-13.19099918 107.45608996 -13.39998311 105.91432007 -13.625 104.375 C-14.3416272 98.1361279 -11.89312717 94.40540069 -8.29296875 89.49609375 C-6.72884411 87.6862456 -5.16332198 86.97698412 -3 86 C-0.77183014 83.46557594 -0.77183014 83.46557594 1 81 C-2.06919299 82.46420216 -4.88354867 84.17423482 -7.75 86 C-12.15910098 88.68209407 -15.94362204 90.06363371 -21 91 C-20.67 91.66 -20.34 92.32 -20 93 C-22.97 93 -25.94 93 -29 93 C-29 92.01 -29 91.02 -29 90 C-30.010625 89.855625 -31.02125 89.71125 -32.0625 89.5625 C-35.70833333 89.04166667 -39.35416667 88.52083333 -43 88 C-43 87.01 -43 86.02 -43 85 C-44.65 84.67 -46.3 84.34 -48 84 C-48.103125 83.360625 -48.20625 82.72125 -48.3125 82.0625 C-48.539375 81.381875 -48.76625 80.70125 -49 80 C-49.99 79.67 -50.98 79.34 -52 79 C-54.86408813 74.34348585 -54.22181364 68.95639638 -54.125 63.6875 C-54.11597656 62.75615234 -54.10695312 61.82480469 -54.09765625 60.86523438 C-54.07418263 58.5765564 -54.04134729 56.28841328 -54 54 C-53.34 54 -52.68 54 -52 54 C-51.773125 53.46375 -51.54625 52.9275 -51.3125 52.375 C-47.00704134 44.58417004 -47.00704134 44.58417004 -43.12109375 43.453125 C-42.42113281 43.30359375 -41.72117187 43.1540625 -41 43 C-39.4745043 42.32290832 -37.95398714 41.63453445 -36.4375 40.9375 C-28.17833474 37.59247725 -20.36317531 38.47526783 -12 41 C-12.495 37.04 -12.495 37.04 -13 33 C-13.66 33 -14.32 33 -15 33 C-16.44279534 28.67161399 -16.55186626 24.52385106 -16 20 C-14.0625 17.1875 -14.0625 17.1875 -12 15 C-11.35232207 12.42938689 -11.35232207 12.42938689 -11 10 C-8.71973999 6.57960999 -8.6132423 6.87593753 -5 6 C-2.82260991 4.157593 -1.60842756 2.41264134 0 0 Z M2 13 C-2.04654428 19.91284647 -1.26901851 27.25824503 -1 35 C-0.01 35.33 0.98 35.66 2 36 C2.69937532 37.31647119 3.36729133 38.65022151 4 40 C4.66 40.33 5.32 40.66 6 41 C6 42.65 6 44.3 6 46 C10.1041911 46 11.84021107 44.54156936 15 42 C15.64767793 39.42938689 15.64767793 39.42938689 16 37 C17.33333333 36.33333333 18.66666667 35.66666667 20 35 C21.04808041 33.02477154 22.0520411 31.02518491 23 29 C23.66 28.67 24.32 28.34 25 28 C25 25.69 25 23.38 25 21 C24.01 20.67 23.02 20.34 22 20 C19.08828211 23.66980204 19.08828211 23.66980204 18 28 C17.01 28 16.02 28 15 28 C14.67 27.01 14.34 26.02 14 25 C12.68 25.33 11.36 25.66 10 26 C10.185625 24.865625 10.37125 23.73125 10.5625 22.5625 C10.706875 21.386875 10.85125 20.21125 11 19 C9.93354885 17.70366379 9.93354885 17.70366379 7.4375 17.9375 C6.633125 17.958125 5.82875 17.97875 5 18 C5 18.66 5 19.32 5 20 C4.34 20 3.68 20 3 20 C3.50603992 17.83125748 3.99983813 16.00032373 5 14 C4.01 13.67 3.02 13.34 2 13 Z M34 16 C35 18 35 18 35 18 Z M-3 20 C-3 22.31 -3 24.62 -3 27 C-2.67 27 -2.34 27 -2 27 C-2 24.69 -2 22.38 -2 20 C-2.33 20 -2.66 20 -3 20 Z M-15 21 C-14 25 -14 25 -14 25 Z M-15 26 C-14 30 -14 30 -14 30 Z M-3 28 C-2 31 -2 31 -2 31 Z M33 41 C33 41.99 33 42.98 33 44 C33.66 43.34 34.32 42.68 35 42 C34.34 41.67 33.68 41.34 33 41 Z M20 42 C17.03 44.64 14.06 47.28 11 50 C11.66 50.66 12.32 51.32 13 52 C15.97 49.36 18.94 46.72 22 44 C21.34 43.34 20.68 42.68 20 42 Z M-7 43 C-7.66 43.66 -8.32 44.32 -9 45 C-8.01 45.33 -7.02 45.66 -6 46 C-6 45.01 -6 44.02 -6 43 C-6.33 43 -6.66 43 -7 43 Z M-3 47 C-1.63016497 50.16115776 -1.0109362 50.9927092 2 53 C0.63016497 49.83884224 0.0109362 49.0072908 -3 47 Z M26 47 C20.06 52.445 20.06 52.445 14 58 C14.66 58.66 15.32 59.32 16 60 C19.63 56.37 23.26 52.74 27 49 C26.67 48.34 26.34 47.68 26 47 Z M9 48 C9.66 48.66 10.32 49.32 11 50 C11 49.34 11 48.68 11 48 C10.34 48 9.68 48 9 48 Z M-20 50 C-18.68 50.99 -17.36 51.98 -16 53 C-15.34 52.34 -14.68 51.68 -14 51 C-16.97 50.505 -16.97 50.505 -20 50 Z M-39.6875 53.875 C-41.17516429 55.86732347 -41.17516429 55.86732347 -41 58 C-41.165 59.216875 -41.33 60.43375 -41.5 61.6875 C-42.74721529 68.47609335 -42.74721529 68.47609335 -40.76953125 74.6171875 C-38.67091168 76.25716836 -37.0325248 76.75245346 -34.4375 77.3125 C-33.65246094 77.49425781 -32.86742187 77.67601563 -32.05859375 77.86328125 C-31.37925781 77.90839844 -30.69992188 77.95351562 -30 78 C-29.34 77.34 -28.68 76.68 -28 76 C-26.39448394 75.44058674 -24.76516347 74.94775976 -23.125 74.5 C-18.52150745 73.23575727 -14.97590873 71.65060582 -11 69 C-9.34450469 68.61500109 -7.6777567 68.27206865 -6 68 C-10.87470366 61.27627081 -18.20974997 55.06750586 -26 52 C-30.97211838 51.37117326 -35.4895706 50.94621205 -39.6875 53.875 Z M34.8125 54 C34.214375 54.66 33.61625 55.32 33 56 C36.12498166 56.3373846 36.12498166 56.3373846 38.1875 54 C38.785625 53.34 39.38375 52.68 40 52 C36.87501834 51.6626154 36.87501834 51.6626154 34.8125 54 Z M48 54 C46.96875 54.33 45.9375 54.66 44.875 55 C41.87488938 55.6686673 41.87488938 55.6686673 41 58 C40.360625 58.28875 39.72125 58.5775 39.0625 58.875 C36.57998766 60.22909764 36.03128603 61.42178493 35 64 C32.625 64.125 32.625 64.125 30 64 C29.34 63.34 28.68 62.68 28 62 C27.67 62.99 27.34 63.98 27 65 C39.78091403 76.13613426 39.78091403 76.13613426 56 79 C58.61374125 78.2638661 60.59391668 77.30765398 63 76 C63 75.01 63 74.02 63 73 C63.63106429 70.98848259 64.29373761 68.98636298 65 67 C65.66 67.66 66.32 68.32 67 69 C67 66.03 67 63.06 67 60 C66.34 60.33 65.68 60.66 65 61 C64.7525 59.88625 64.505 58.7725 64.25 57.625 C63.36079034 54.08159406 63.36079034 54.08159406 61.375 52.5625 C56.51382227 51.41116843 52.28167387 51.14555075 48 54 Z M-13 52 C-13.66 52.66 -14.32 53.32 -15 54 C-14.01 54.33 -13.02 54.66 -12 55 C-11.34 54.34 -10.68 53.68 -10 53 C-10.99 52.67 -11.98 52.34 -13 52 Z M3 53 C4 55 4 55 4 55 Z M31 56 C29.515 57.98 29.515 57.98 28 60 C28.99 60 29.98 60 31 60 C31.66 59.01 32.32 58.02 33 57 C32.34 56.67 31.68 56.34 31 56 Z M-53 57 C-52 59 -52 59 -52 59 Z M-5 57 C-5.99 58.485 -5.99 58.485 -7 60 C-2.05 64.455 -2.05 64.455 3 69 C3.99 68.01 4.98 67.02 6 66 C4.35687553 64.49703315 2.71042916 62.99769719 1.0625 61.5 C0.14597656 60.6646875 -0.77054688 59.829375 -1.71484375 58.96875 C-3.62355559 56.89121516 -3.62355559 56.89121516 -5 57 Z M9 58 C9.66 59.32 10.32 60.64 11 62 C11.66 61.34 12.32 60.68 13 60 C11.68 59.34 10.36 58.68 9 58 Z M75 58 C76 61 76 61 76 61 Z M-44 61 C-44 63.64 -44 66.28 -44 69 C-43.67 69 -43.34 69 -43 69 C-43 66.36 -43 63.72 -43 61 C-43.33 61 -43.66 61 -44 61 Z M15 63 C14.67960194 66.13937867 14.67960194 66.13937867 17.01171875 68.41015625 C17.89472656 69.28542969 18.77773437 70.16070312 19.6875 71.0625 C20.55761719 71.94035156 21.42773438 72.81820312 22.32421875 73.72265625 C24.87182974 75.89091494 26.8409977 76.9925344 30 78 C30.66 77.01 31.32 76.02 32 75 C29.91986415 73.37076065 27.83612026 71.7465453 25.75 70.125 C25.16347656 69.66480469 24.57695313 69.20460938 23.97265625 68.73046875 C21.09070923 66.49615028 18.37428833 64.4532826 15 63 Z M-53 70 C-52 73 -52 73 -52 73 Z M65 70 C66 72 66 72 66 72 Z M12 73 C12 73.99 12 74.98 12 76 C12.99 75.34 13.98 74.68 15 74 C14.01 73.67 13.02 73.34 12 73 Z M-11 74 C-11.50789063 74.33773437 -12.01578125 74.67546875 -12.5390625 75.0234375 C-16.59911488 77.65410814 -20.287806 79.70414665 -25 81 C-25 81.33 -25 81.66 -25 82 C-18.21017493 81.62964591 -13.73115109 79.59523599 -8 76 C-8.99 75.34 -9.98 74.68 -11 74 Z M3 77 C3 77.99 3 78.98 3 80 C3.66 79.34 4.32 78.68 5 78 C4.34 77.67 3.68 77.34 3 77 Z M34 77 C34.99 77.99 35.98 78.98 37 80 C37.66 79.67 38.32 79.34 39 79 C36.525 78.01 36.525 78.01 34 77 Z M40 80 C40 80.99 40 81.98 40 83 C42.64 83 45.28 83 48 83 C45.08235 81.0549 43.37462715 80.54723683 40 80 Z M9 82 C6.69 84.31 4.38 86.62 2 89 C2.66 89.66 3.32 90.32 4 91 C6.81939117 88.79020692 9.53058944 86.59937954 12 84 C11.01 83.34 10.02 82.68 9 82 Z M14 87 C13.01 88.485 13.01 88.485 12 90 C10.20391236 91.33284331 8.34712421 92.51774948 6.4609375 93.71875 C5.97882813 94.1415625 5.49671875 94.564375 5 95 C5 95.99 5 96.98 5 98 C3.66666667 99.66666667 2.33333333 101.33333333 1 103 C1 103.99 1 104.98 1 106 C0.34 106.33 -0.32 106.66 -1 107 C-0.690625 108.0725 -0.38125 109.145 -0.0625 110.25 C0.66842134 112.82972239 1.36100452 115.39796433 2 118 C4.74951111 118.24913692 7.4976272 118.47491836 10.25 118.6875 C11.02730469 118.76033203 11.80460937 118.83316406 12.60546875 118.90820312 C16.02799902 119.15684849 18.34927406 119.2905567 21.51953125 117.875 C24.60121353 113.97207785 23.49465068 108.69620166 23 104 C21.81770178 98.79448555 19.39315325 95.07178391 16 91 C15.25 88.6875 15.25 88.6875 15 87 C14.67 87 14.34 87 14 87 Z M-12 98 C-11 100 -11 100 -11 100 Z M33 98 C34 100 34 100 34 100 Z M34 100 C35 103 35 103 35 103 Z M-13 101 C-12 103 -12 103 -12 103 Z M0 101 C1 103 1 103 1 103 Z M23 101 C24 104 24 104 24 104 Z M24 105 C24 106.65 24 108.3 24 110 C24.33 110 24.66 110 25 110 C25 108.35 25 106.7 25 105 C24.67 105 24.34 105 24 105 Z M-2 107 C-1 111 -1 111 -1 111 Z M-12 114 C-11 116 -11 116 -11 116 Z M6 119 C6 119.33 6 119.66 6 120 C8.97 120 11.94 120 15 120 C15 119.67 15 119.34 15 119 C12.03 119 9.06 119 6 119 Z " fill="#90203F" transform="translate(102,22)"/>
<path d="M0 0 C0 0.66 0 1.32 0 2 C0.86625 2.4021875 0.86625 2.4021875 1.75 2.8125 C6.01731843 5.06469584 8.56733855 6.97230923 10.40234375 11.625 C11.72191221 16.86877532 13.48258576 25.03482849 11 30 C10.34 30 9.68 30 9 30 C8.8453125 30.8353125 8.8453125 30.8353125 8.6875 31.6875 C6.9872944 37.40637339 4.06740461 40.0857073 -0.96875 42.99609375 C-6.72410234 45.84056596 -13.70919579 45.34948912 -20 45 C-20.66 44.67 -21.32 44.34 -22 44 C-22 43.34 -22 42.68 -22 42 C-20.96359375 41.90203125 -19.9271875 41.8040625 -18.859375 41.703125 C-17.48948259 41.5529998 -16.11969596 41.40190713 -14.75 41.25 C-14.06808594 41.188125 -13.38617188 41.12625 -12.68359375 41.0625 C-8.08431616 40.52666183 -5.93976382 39.54990349 -3 36 C-0.75 34.75 -0.75 34.75 1 34 C1 33.01 1 32.02 1 31 C0.01 30.505 0.01 30.505 -1 30 C-0.525625 29.2575 -0.05125 28.515 0.4375 27.75 C3.09617762 23.07072739 3.14213654 20.50573088 2 15.4375 C1.814375 14.61121094 1.62875 13.78492187 1.4375 12.93359375 C1.293125 12.29550781 1.14875 11.65742187 1 11 C-0.32 10.67 -1.64 10.34 -3 10 C-3 9.67 -3 9.34 -3 9 C-5.97 8.67 -8.94 8.34 -12 8 C-10.68 7.34 -9.36 6.68 -8 6 C-10.31 5.67 -12.62 5.34 -15 5 C-14.67 5.66 -14.34 6.32 -14 7 C-15.60032137 7.84069415 -17.20541171 8.67231505 -18.8125 9.5 C-19.70582031 9.9640625 -20.59914062 10.428125 -21.51953125 10.90625 C-24 12 -24 12 -27 12 C-26.34 11.01 -25.68 10.02 -25 9 C-30.29158974 10.40071493 -32.77478044 13.85487245 -36 18 C-38 17 -38 17 -39 16 C-39.33 17.32 -39.66 18.64 -40 20 C-41.32 19.67 -42.64 19.34 -44 19 C-43.51953002 14.78147358 -41.25202971 13.11586892 -38.125 10.4375 C-34.62392577 7.44621284 -34.62392577 7.44621284 -31.3125 4.25390625 C-30 3 -30 3 -27.875 2.5 C-27.25625 2.335 -26.6375 2.17 -26 2 C-25.67 1.01 -25.34 0.02 -25 -1 C-17.28510593 -4.96170236 -7.42181141 -4.04826077 0 0 Z M3 26 C4 28 4 28 4 28 Z " fill="#931D3D" transform="translate(164,66)"/>
<path d="M0 0 C1.28132813 0.00902344 2.56265625 0.01804687 3.8828125 0.02734375 C5.36394531 0.04474609 5.36394531 0.04474609 6.875 0.0625 C6.875 0.7225 6.875 1.3825 6.875 2.0625 C7.7103125 2.2171875 7.7103125 2.2171875 8.5625 2.375 C11.36959905 3.20954296 13.48099609 4.38022698 15.875 6.0625 C16.37 7.5475 16.37 7.5475 16.875 9.0625 C17.535 9.7225 18.195 10.3825 18.875 11.0625 C18.875 12.0525 18.875 13.0425 18.875 14.0625 C20.52534926 16.00907605 20.52534926 16.00907605 22.6875 17.8125 C23.39519531 18.44671875 24.10289063 19.0809375 24.83203125 19.734375 C25.50621094 20.17265625 26.18039063 20.6109375 26.875 21.0625 C27.865 20.7325 28.855 20.4025 29.875 20.0625 C30.45507812 20.78566406 30.45507812 20.78566406 31.046875 21.5234375 C31.82804687 22.47089844 31.82804687 22.47089844 32.625 23.4375 C33.13546875 24.06398438 33.6459375 24.69046875 34.171875 25.3359375 C35.96747649 27.1562491 37.60349242 27.94300444 39.875 29.0625 C41.2190093 31.05534138 42.55041292 33.05669671 43.875 35.0625 C48.19385173 40.04307005 48.19385173 40.04307005 53.875 43.0625 C54.205 44.0525 54.535 45.0425 54.875 46.0625 C55.85350195 47.08354551 56.85480427 48.0831121 57.875 49.0625 C60.68497518 53.27746277 60.01490503 56.57350225 59.75 61.5 C59.72679687 62.35916016 59.70359375 63.21832031 59.6796875 64.10351562 C59.36655476 70.41020476 59.36655476 70.41020476 57.0234375 73.51953125 C54.34949286 75.43990967 51.65262024 77.29492348 48.875 79.0625 C48.215 78.7325 47.555 78.4025 46.875 78.0625 C47.803125 77.69125 47.803125 77.69125 48.75 77.3125 C51.37950039 75.76573506 51.75990291 74.88741263 52.875 72.0625 C53.24625 71.12277344 53.24625 71.12277344 53.625 70.1640625 C54.91644914 66.82367963 56.05683504 63.55333718 56.875 60.0625 C56.545 60.0625 56.215 60.0625 55.875 60.0625 C54.73735649 55.79633684 53.875 52.49763689 53.875 48.0625 C52.39 47.5675 52.39 47.5675 50.875 47.0625 C50.6584375 46.1034375 50.6584375 46.1034375 50.4375 45.125 C50.251875 44.444375 50.06625 43.76375 49.875 43.0625 C48.95847656 42.61003906 48.95847656 42.61003906 48.0234375 42.1484375 C45.62280756 40.93502818 44.57459684 39.73372585 42.9375 37.625 C40.52511971 34.66630459 38.22675406 32.93553904 34.875 31.0625 C34.875 30.4025 34.875 29.7425 34.875 29.0625 C31.13071064 30.14340014 31.13071064 30.14340014 28.8125 33.0625 C28.503125 33.7225 28.19375 34.3825 27.875 35.0625 C25.75 36.3125 25.75 36.3125 23.875 37.0625 C24.205 36.0725 24.535 35.0825 24.875 34.0625 C21.80580701 35.52670216 18.99145133 37.23673482 16.125 39.0625 C11.71589902 41.74459407 7.93137796 43.12613371 2.875 44.0625 C3.205 44.7225 3.535 45.3825 3.875 46.0625 C0.905 46.0625 -2.065 46.0625 -5.125 46.0625 C-5.125 45.0725 -5.125 44.0825 -5.125 43.0625 C-6.135625 42.918125 -7.14625 42.77375 -8.1875 42.625 C-13.65625 41.84375 -13.65625 41.84375 -19.125 41.0625 C-19.125 40.0725 -19.125 39.0825 -19.125 38.0625 C-20.775 37.7325 -22.425 37.4025 -24.125 37.0625 C-24.228125 36.423125 -24.33125 35.78375 -24.4375 35.125 C-24.7778125 34.1040625 -24.7778125 34.1040625 -25.125 33.0625 C-26.115 32.7325 -27.105 32.4025 -28.125 32.0625 C-29.53494899 29.45409436 -30.20486343 27.78127088 -29.875 24.8125 C-29.125 23.0625 -29.125 23.0625 -27.125 22.0625 C-26.67125 23.17625 -26.2175 24.29 -25.75 25.4375 C-24.40034014 29.02449008 -24.40034014 29.02449008 -22.125 31.0625 C-22.125 32.0525 -22.125 33.0425 -22.125 34.0625 C-21.465 34.0625 -20.805 34.0625 -20.125 34.0625 C-20.125 34.7225 -20.125 35.3825 -20.125 36.0625 C-19.568125 36.165625 -19.01125 36.26875 -18.4375 36.375 C-16.125 37.0625 -16.125 37.0625 -13.9921875 38.58203125 C-10.29061665 40.49333282 -7.00512808 40.51523969 -2.9375 40.4375 C-2.1837207 40.42807373 -1.42994141 40.41864746 -0.65332031 40.40893555 C6.62988405 40.21270494 13.08100597 39.54605025 18.6875 34.5625 C19.409375 33.7375 20.13125 32.9125 20.875 32.0625 C21.761875 31.5675 22.64875 31.0725 23.5625 30.5625 C26.3801356 28.73484447 26.93445489 27.22615173 27.875 24.0625 C26.885 23.7325 25.895 23.4025 24.875 23.0625 C24.215 22.0725 23.555 21.0825 22.875 20.0625 C21.885 19.7325 20.895 19.4025 19.875 19.0625 C19.875 18.4025 19.875 17.7425 19.875 17.0625 C18.885 17.5575 18.885 17.5575 17.875 18.0625 C18.8959375 18.92875 18.8959375 18.92875 19.9375 19.8125 C21.875 22.0625 21.875 22.0625 21.8125 24.125 C20.72057715 26.38164055 19.96308393 27.64558591 17.875 29.0625 C17.153125 28.85625 16.43125 28.65 15.6875 28.4375 C11.23338709 27.84361828 8.37340991 30.49590955 4.875 33.0625 C4.545 33.3925 4.215 33.7225 3.875 34.0625 C5.195 34.3925 6.515 34.7225 7.875 35.0625 C0.34316871 38.07523252 -6.59284348 37.65979535 -14.125 35.0625 C-15.3515625 32.984375 -15.3515625 32.984375 -16.125 31.0625 C-15.37476563 31.24167969 -14.62453125 31.42085937 -13.8515625 31.60546875 C-5.40382764 33.3609804 0.8856115 33.27228576 8.2734375 28.51953125 C10.20364435 27.09388725 12.05898968 25.62995025 13.875 24.0625 C13.215 23.4025 12.555 22.7425 11.875 22.0625 C13.525 21.7325 15.175 21.4025 16.875 21.0625 C14.0732 17.27610519 11.21039855 14.59876518 7.375 11.875 C6.4365625 11.20082031 5.498125 10.52664062 4.53125 9.83203125 C-0.10965366 6.74037043 -3.5342026 5.70759201 -9.125 5.0625 C-9.125 3.7425 -9.125 2.4225 -9.125 1.0625 C-6.12186252 -0.43906874 -3.33432478 -0.03031204 0 0 Z M3.875 3.0625 C5.195 4.0525 6.515 5.0425 7.875 6.0625 C8.535 5.4025 9.195 4.7425 9.875 4.0625 C6.905 3.5675 6.905 3.5675 3.875 3.0625 Z M10.875 5.0625 C10.215 5.7225 9.555 6.3825 8.875 7.0625 C9.865 7.3925 10.855 7.7225 11.875 8.0625 C12.535 7.4025 13.195 6.7425 13.875 6.0625 C12.885 5.7325 11.895 5.4025 10.875 5.0625 Z M26.875 30.0625 C26.875 31.0525 26.875 32.0425 26.875 33.0625 C27.535 32.4025 28.195 31.7425 28.875 31.0625 C28.215 30.7325 27.555 30.4025 26.875 30.0625 Z M56.875 51.0625 C57.875 53.0625 57.875 53.0625 57.875 53.0625 Z M57.875 53.0625 C58.875 56.0625 58.875 56.0625 58.875 56.0625 Z " fill="#8E3149" transform="translate(78.125,68.9375)"/>
<path d="M0 0 C7.72591006 4.91648822 7.72591006 4.91648822 10 8 C10.63806754 11.40858407 10.69667709 14.78885817 10.75 18.25 C10.77964844 19.18585937 10.80929688 20.12171875 10.83984375 21.0859375 C10.91039804 23.39071092 10.96316252 25.69448168 11 28 C10.34 28 9.68 28 9 28 C8.92523438 28.61488281 8.85046875 29.22976562 8.7734375 29.86328125 C8.64195312 30.67152344 8.51046875 31.47976562 8.375 32.3125 C8.25898438 33.11300781 8.14296875 33.91351563 8.0234375 34.73828125 C6.53082503 38.03684086 4.23310718 38.44331877 1 40 C-1.59592331 42.08567071 -3.97804522 44.37811664 -6.375 46.6875 C-7.01566406 47.29400391 -7.65632813 47.90050781 -8.31640625 48.52539062 C-9.88355497 50.01067337 -11.44261451 51.50448324 -13 53 C-16.26460973 51.19587357 -17.88929795 50.16605307 -20 47 C-17.33333333 47.66666667 -14.66666667 48.33333333 -12 49 C-12 48.01 -12 47.02 -12 46 C-13.32 46 -14.64 46 -16 46 C-16 45.34 -16 44.68 -16 44 C-16.99 43.67 -17.98 43.34 -19 43 C-20.9375 40.6015625 -20.9375 40.6015625 -23 37.625 C-25.63118381 33.78468429 -25.63118381 33.78468429 -28.70703125 30.31640625 C-31.62190865 27.34869119 -31.04859221 22.55395102 -31.0625 18.625 C-31.041875 17.42875 -31.02125 16.2325 -31 15 C-30.34 15.66 -29.68 16.32 -29 17 C-28.34 15.68 -27.68 14.36 -27 13 C-26.97421875 14.03640625 -26.9484375 15.0728125 -26.921875 16.140625 C-26.86558049 17.51045801 -26.80823345 18.88024805 -26.75 20.25 C-26.73582031 20.93191406 -26.72164063 21.61382812 -26.70703125 22.31640625 C-26.54238276 25.70816523 -26.26647346 27.66186981 -24.140625 30.359375 C-22.47406214 31.6366677 -20.74708935 32.83527376 -19 34 C-18.8125 36.625 -18.8125 36.625 -19 39 C-14.21832368 36.37996611 -14.21832368 36.37996611 -11.125 32.0625 C-10 30 -10 30 -7.9375 28.5625 C-5.45492059 26.56041983 -5.33488864 25.09771991 -5 22 C-4.34 22 -3.68 22 -3 22 C-3 19.69 -3 17.38 -3 15 C-2.34 16.32 -1.68 17.64 -1 19 C-0.67 17.68 -0.34 16.36 0 15 C0.66 15 1.32 15 2 15 C2 16.65 2 18.3 2 20 C2.66 20 3.32 20 4 20 C4.33 19.34 4.66 18.68 5 18 C5.495 19.485 5.495 19.485 6 21 C6.56899977 14.17200277 5.44005177 9.86315393 2 4 C1.32496678 2.67088286 0.65600749 1.33860987 0 0 Z M8 9 C9 11 9 11 9 11 Z M-29 21 C-28 24 -28 24 -28 24 Z M-6 35 C-8.97 37.64 -11.94 40.28 -15 43 C-14.34 43.66 -13.68 44.32 -13 45 C-10.03 42.36 -7.06 39.72 -4 37 C-4.66 36.34 -5.32 35.68 -6 35 Z M-17 41 C-16.34 41.66 -15.68 42.32 -15 43 C-15 42.34 -15 41.68 -15 41 C-15.66 41 -16.32 41 -17 41 Z " fill="#862940" transform="translate(128,29)"/>
<path d="M0 0 C6.17597474 0.88228211 9.81801775 4.65680025 13.5703125 9.28125 C15.41564265 11.49967969 17.39653897 13.4799805 19.58203125 15.36328125 C21.43277451 17.49953862 21.94714773 19.47287499 22.6875 22.1875 C22.93886719 23.08855469 23.19023437 23.98960938 23.44921875 24.91796875 C23.63097656 25.60503906 23.81273437 26.29210937 24 27 C24.33 27 24.66 27 25 27 C25.125 30.375 25.125 30.375 25 34 C24.34 34.66 23.68 35.32 23 36 C22.731875 36.763125 22.46375 37.52625 22.1875 38.3125 C20.7070335 41.66302945 18.67192912 43.52357789 16 46 C15.60039063 46.54011719 15.20078125 47.08023438 14.7890625 47.63671875 C11.95174051 49.79878289 9.30038541 49.28349685 5.8125 49.1875 C4.54019531 49.16042969 3.26789063 49.13335937 1.95703125 49.10546875 C0.98121094 49.07066406 0.00539063 49.03585938 -1 49 C-1.33 47.35 -1.66 45.7 -2 44 C-1.39671875 43.93941406 -0.7934375 43.87882812 -0.171875 43.81640625 C0.62734375 43.73261719 1.4265625 43.64882812 2.25 43.5625 C3.03890625 43.48128906 3.8278125 43.40007812 4.640625 43.31640625 C6.84731876 43.02047546 8.88663141 42.70290453 11 42 C12.1500831 40.03327085 12.1500831 40.03327085 13 38 C13.99 37.505 13.99 37.505 15 37 C16.74723105 30.62708676 17.07024525 23.54183246 14.5 17.4375 C14.005 16.633125 13.51 15.82875 13 15 C13 14.34 13 13.68 13 13 C12.01 12.67 11.02 12.34 10 12 C8.31640625 10.2578125 8.31640625 10.2578125 6.5625 8.125 C4.24204701 5.31138586 1.99410327 3.09258206 -1 1 C-0.67 0.67 -0.34 0.34 0 0 Z " fill="#921B3C" transform="translate(111,100)"/>
<path d="M0 0 C3.06924519 1.74200403 5.12125602 3.54122085 7.3125 6.3125 C7.4375 8.8125 7.4375 8.8125 6.3125 11.3125 C3.8125 14 3.8125 14 1.3125 16.3125 C0.9825 16.9725 0.6525 17.6325 0.3125 18.3125 C-0.6775 18.3125 -1.6675 18.3125 -2.6875 18.3125 C-3.0175 17.6525 -3.3475 16.9925 -3.6875 16.3125 C-5.0075 16.3125 -6.3275 16.3125 -7.6875 16.3125 C-7.6875 14.0025 -7.6875 11.6925 -7.6875 9.3125 C-8.6775 9.6425 -9.6675 9.9725 -10.6875 10.3125 C-12.01856622 10.65477417 -13.35150079 10.99001743 -14.6875 11.3125 C-15.3125 9.4375 -15.3125 9.4375 -15.6875 7.3125 C-15.0275 6.6525 -14.3675 5.9925 -13.6875 5.3125 C-14.3475 5.3125 -15.0075 5.3125 -15.6875 5.3125 C-16.3475 6.9625 -17.0075 8.6125 -17.6875 10.3125 C-18.6775 9.6525 -19.6675 8.9925 -20.6875 8.3125 C-19.19271886 4.50760255 -16.99307786 2.65059165 -13.6875 0.3125 C-9.09175319 -1.2194156 -4.65168181 -1.18996511 0 0 Z " fill="#973750" transform="translate(119.6875,31.6875)"/>
<path d="M0 0 C3.3 0.33 6.6 0.66 10 1 C8 2.33333333 6 3.66666667 4 5 C4 5.66 4 6.32 4 7 C1.69 7.33 -0.62 7.66 -3 8 C-3 8.66 -3 9.32 -3 10 C-3.94875 10.2475 -4.8975 10.495 -5.875 10.75 C-9.07714515 11.67806734 -9.07714515 11.67806734 -10.3125 14.0625 C-10.6528125 15.0215625 -10.6528125 15.0215625 -11 16 C-12 17 -12 17 -14.4375 17.0625 C-15.7059375 17.0315625 -15.7059375 17.0315625 -17 17 C-17.66 17 -18.32 17 -19 17 C-18.54109375 17.38671875 -18.0821875 17.7734375 -17.609375 18.171875 C-12.27103825 22.70273224 -12.27103825 22.70273224 -10.0625 25.125 C-4.16859254 30.48309769 2.22645968 31.68141228 10 32 C10 32.33 10 32.66 10 33 C4.06 33.495 4.06 33.495 -2 34 C-2 33.34 -2 32.68 -2 32 C-2.66644531 31.87625 -3.33289063 31.7525 -4.01953125 31.625 C-12.61803408 29.70085951 -20.83635189 25.81365423 -25.8125 18.2421875 C-26.204375 17.50226563 -26.59625 16.76234375 -27 16 C-26.34 15.67 -25.68 15.34 -25 15 C-24.67 14.01 -24.34 13.02 -24 12 C-23.34 12.33 -22.68 12.66 -22 13 C-19.10491489 13 -17.40303527 11.51770648 -15 10 C-15.33 9.01 -15.66 8.02 -16 7 C-13 7 -13 7 -10 8 C-7.68295537 6.87109926 -7.68295537 6.87109926 -5.375 5.1875 C-4.57835937 4.64480469 -3.78171875 4.10210937 -2.9609375 3.54296875 C-0.8930998 2.14150804 -0.8930998 2.14150804 0 0 Z " fill="#862640" transform="translate(149,70)"/>
<path d="M0 0 C0.66 0 1.32 0 2 0 C2 0.66 2 1.32 2 2 C1.01 2.495 1.01 2.495 0 3 C0.50789063 3.42410156 1.01578125 3.84820312 1.5390625 4.28515625 C7.8385799 9.65272258 13.97580049 15.10347906 17 23 C17.1875 26.375 17.1875 26.375 17 29 C16.34 29 15.68 29 15 29 C15 30.65 15 32.3 15 34 C15.66 34 16.32 34 17 34 C16.34 35.98 15.68 37.96 15 40 C13 38 13 38 12.91015625 35.8984375 C12.96042969 35.06570312 13.01070312 34.23296875 13.0625 33.375 C13.20732695 25.65460961 10.89421979 20.87306375 6 15 C5.855625 14.319375 5.71125 13.63875 5.5625 12.9375 C4.68807644 9.92559662 2.47071318 8.77384536 0 7 C-0.45890625 7.45890625 -0.9178125 7.9178125 -1.390625 8.390625 C-2.00421875 9.00421875 -2.6178125 9.6178125 -3.25 10.25 C-3.89066406 10.89710937 -4.53132813 11.54421875 -5.19140625 12.2109375 C-6.47621631 13.48187273 -7.81536277 14.69888237 -9.1875 15.875 C-11.98554421 19.15546563 -13.40339356 23.02546908 -15 27 C-15.33 26.01 -15.66 25.02 -16 24 C-16.33 23.67 -16.66 23.34 -17 23 C-17.66 23.99 -18.32 24.98 -19 26 C-18.835 24.9275 -18.67 23.855 -18.5 22.75 C-17.91189085 18.96971248 -17.91189085 18.96971248 -18 15 C-16.8125 13.5 -16.8125 13.5 -15 12 C-13.824375 11.01 -13.824375 11.01 -12.625 10 C-10 8 -10 8 -7.5 6.5625 C-4.81027479 5.01171143 -4.81027479 5.01171143 -2.3125 2.3125 C-1.549375 1.549375 -0.78625 0.78625 0 0 Z M14 25 C15 28 15 28 15 28 Z " fill="#8A2841" transform="translate(111,98)"/>
<path d="M0 0 C0.99 0 1.98 0 3 0 C3 0.66 3 1.32 3 2 C3.5775 2.0825 4.155 2.165 4.75 2.25 C7.74522583 3.24840861 9.11085148 4.48113531 11 7 C10.93056961 9.84664607 10.48524293 11.36918419 8.75 13.625 C6.61684778 15.30104818 4.3249667 16.60501998 2 18 C1.54625 18.49113281 1.0925 18.98226562 0.625 19.48828125 C-4.66884959 24.41308844 -13.15700449 24.30291261 -19.9453125 24.10546875 C-20.62335938 24.07066406 -21.30140625 24.03585938 -22 24 C-21.34 23.67 -20.68 23.34 -20 23 C-20 22.34 -20 21.68 -20 21 C-18.35 21 -16.7 21 -15 21 C-15 20.34 -15 19.68 -15 19 C-14.2575 18.731875 -13.515 18.46375 -12.75 18.1875 C-10.04963615 17.15141624 -10.04963615 17.15141624 -8.1875 15.625 C-5.54985803 13.66560882 -2.77158151 12.35872414 0.1953125 10.96484375 C2.17454828 10.01891485 2.17454828 10.01891485 4 8 C3.66306057 4.63060567 2.11180592 2.57089417 0 0 Z " fill="#921E3E" transform="translate(95,86)"/>
<path d="M0 0 C2.70613186 1.03469747 5.17722863 2.1030399 7.6875 3.5625 C14.57568399 6.55171192 21.01980335 6.57963789 28 4 C28 4.66 28 5.32 28 6 C20.91490021 13.08509979 13.57727298 13.22001292 3.953125 13.265625 C-0.53045579 12.86233996 -2.33166724 11.77972156 -5.25 8.375 C-5.8275 7.59125 -6.405 6.8075 -7 6 C-5.375 4.8125 -5.375 4.8125 -3 4 C-0.96855359 4.93446535 1.03533587 5.93224776 3 7 C3.66 6.67 4.32 6.34 5 6 C7.625 6.9375 7.625 6.9375 10 8 C9.01 8.33 8.02 8.66 7 9 C6.01 9.495 6.01 9.495 5 10 C7.31 10 9.62 10 12 10 C12 9.34 12 8.68 12 8 C11.30132812 7.67386719 10.60265625 7.34773438 9.8828125 7.01171875 C8.97273437 6.57472656 8.06265625 6.13773437 7.125 5.6875 C6.22007812 5.25824219 5.31515625 4.82898438 4.3828125 4.38671875 C2 3 2 3 0 0 Z " fill="#8E374D" transform="translate(137,94)"/>
<path d="M0 0 C0.9075 0.185625 1.815 0.37125 2.75 0.5625 C8.17375579 1.36767612 13.58253845 0.57821839 19 0 C19 0.66 19 1.32 19 2 C19.99 2.33 20.98 2.66 22 3 C22 3.66 22 4.32 22 5 C21.48179688 4.84015625 20.96359375 4.6803125 20.4296875 4.515625 C17.29862006 3.8511541 14.32511699 3.79129183 11.125 3.75 C9.93132812 3.72421875 8.73765625 3.6984375 7.5078125 3.671875 C3.68314109 4.02963936 1.33073816 5.15498469 -2 7 C-2.66 7 -3.32 7 -4 7 C-4.33 7.99 -4.66 8.98 -5 10 C-6.33333333 11.33333333 -7.66666667 12.66666667 -9 14 C-11.35446707 17.57286262 -11.23688922 20.73043632 -11.1875 24.9375 C-11.18105469 26.14277344 -11.17460938 27.34804688 -11.16796875 28.58984375 C-11.02369792 31.51887709 -10.67498236 34.15427436 -10 37 C-10.99 37 -11.98 37 -13 37 C-13.12375 36.401875 -13.2475 35.80375 -13.375 35.1875 C-13.95475985 32.73768652 -13.95475985 32.73768652 -16 30 C-16.69961774 25.20029692 -16.85494807 21.24105365 -14.0625 17.1875 C-13.381875 16.465625 -12.70125 15.74375 -12 15 C-11.35232207 12.42938689 -11.35232207 12.42938689 -11 10 C-8.71973999 6.57960999 -8.6132423 6.87593753 -5 6 C-2.82260991 4.157593 -1.60842756 2.41264134 0 0 Z M-15 21 C-14 25 -14 25 -14 25 Z M-15 26 C-14 30 -14 30 -14 30 Z " fill="#923750" transform="translate(102,22)"/>
<path d="M0 0 C3.3 0.33 6.6 0.66 10 1 C8 2.33333333 6 3.66666667 4 5 C4 5.66 4 6.32 4 7 C1.69 7.33 -0.62 7.66 -3 8 C-3 8.66 -3 9.32 -3 10 C-3.94875 10.2475 -4.8975 10.495 -5.875 10.75 C-9.07714515 11.67806734 -9.07714515 11.67806734 -10.3125 14.0625 C-10.6528125 15.0215625 -10.6528125 15.0215625 -11 16 C-12 17 -12 17 -14.375 17.125 C-17 17 -17 17 -20 16 C-19.75 14.125 -19.75 14.125 -19 12 C-16.9375 10.75 -16.9375 10.75 -15 10 C-15.33 9.01 -15.66 8.02 -16 7 C-13 7 -13 7 -10 8 C-7.68295537 6.87109926 -7.68295537 6.87109926 -5.375 5.1875 C-4.57835937 4.64480469 -3.78171875 4.10210937 -2.9609375 3.54296875 C-0.8930998 2.14150804 -0.8930998 2.14150804 0 0 Z " fill="#863648" transform="translate(149,70)"/>
<path d="M0 0 C1.28132813 0.00902344 2.56265625 0.01804687 3.8828125 0.02734375 C4.87023437 0.03894531 5.85765625 0.05054687 6.875 0.0625 C6.875 0.7225 6.875 1.3825 6.875 2.0625 C7.431875 2.165625 7.98875 2.26875 8.5625 2.375 C11.31676578 3.19383577 13.46227657 4.52103781 15.875 6.0625 C13.875 7.0625 13.875 7.0625 10.875 7.0625 C11.865 8.5475 11.865 8.5475 12.875 10.0625 C10.12823037 9.04227128 7.70125778 7.95744656 5.1875 6.4375 C3.03688894 4.89214154 3.03688894 4.89214154 0.875 5.0625 C1.48988281 5.44921875 2.10476562 5.8359375 2.73828125 6.234375 C3.54652344 6.75515625 4.35476562 7.2759375 5.1875 7.8125 C5.98800781 8.32296875 6.78851563 8.8334375 7.61328125 9.359375 C9.87868861 11.06527761 11.30184167 12.72058145 12.875 15.0625 C9.88794639 13.66630415 7.34855108 12.00133503 4.6875 10.0625 C0.14659826 6.96985928 -3.72755156 5.91923785 -9.125 5.0625 C-9.125 3.7425 -9.125 2.4225 -9.125 1.0625 C-6.12186252 -0.43906874 -3.33432478 -0.03031204 0 0 Z M3.875 3.0625 C5.195 4.0525 6.515 5.0425 7.875 6.0625 C8.535 5.4025 9.195 4.7425 9.875 4.0625 C6.905 3.5675 6.905 3.5675 3.875 3.0625 Z " fill="#963C53" transform="translate(78.125,68.9375)"/>
<path d="M0 0 C2.7654203 0.1929363 4.32795051 0.78924845 6.6875 2.1875 C5.68983891 4.68165272 5.00133315 5.97490335 2.75 7.5 C0.6875 8.1875 0.6875 8.1875 -2.3125 7.1875 C-4.39456185 8.12557414 -4.39456185 8.12557414 -6.4375 9.5625 C-7.14132813 10.02398437 -7.84515625 10.48546875 -8.5703125 10.9609375 C-10.25412908 12.0720883 -10.25412908 12.0720883 -11.3125 13.1875 C-9.9925 13.5175 -8.6725 13.8475 -7.3125 14.1875 C-14.84433129 17.20023252 -21.78034348 16.78479535 -29.3125 14.1875 C-30.5390625 12.109375 -30.5390625 12.109375 -31.3125 10.1875 C-30.56226563 10.36667969 -29.81203125 10.54585937 -29.0390625 10.73046875 C-20.59132764 12.4859804 -14.3018885 12.39728576 -6.9140625 7.64453125 C-4.98385565 6.21888725 -3.12851032 4.75495025 -1.3125 3.1875 C-1.9725 2.5275 -2.6325 1.8675 -3.3125 1.1875 C-2.3125 0.1875 -2.3125 0.1875 0 0 Z " fill="#943F53" transform="translate(93.3125,89.8125)"/>
<path d="M0 0 C0.99 0.33 1.98 0.66 3 1 C2.67 1.886875 2.34 2.77375 2 3.6875 C0.34951604 9.31309323 0.84296578 15.19845814 1 21 C1.66 21 2.32 21 3 21 C3.309375 21.886875 3.61875 22.77375 3.9375 23.6875 C7.18931164 28.91010658 12.26888926 31.08962975 18 33 C23.04936467 33.29098034 28.08614397 33.31036161 33 32 C32.505 32.99 32.505 32.99 32 34 C26.3254273 35.89152423 19.34034436 36.05513333 13.61328125 34.24609375 C11.656728 33.26589517 9.84269625 32.17851562 8 31 C7.36191406 30.67644531 6.72382812 30.35289062 6.06640625 30.01953125 C2.04803563 27.97275204 -0.328027 26.22910817 -2 22 C-2.08967728 19.66839059 -2.0777346 17.33203812 -2 15 C-2.19099918 13.45608996 -2.39998311 11.91432007 -2.625 10.375 C-3.0769269 6.69681721 -2.86346873 4.3128333 -1 1 C-0.67 0.67 -0.34 0.34 0 0 Z M-1 4 C0 6 0 6 0 6 Z M-2 7 C-1 9 -1 9 -1 9 Z M-1 20 C0 22 0 22 0 22 Z " fill="#943750" transform="translate(91,116)"/>
<path d="M0 0 C0 4.38968456 -2.12805101 5.76905739 -5 9 C-4.34 9.33 -3.68 9.66 -3 10 C-4.65 11.98 -6.3 13.96 -8 16 C-8.33 15.34 -8.66 14.68 -9 14 C-9.66 14 -10.32 14 -11 14 C-12.00109515 17.31070838 -12.10356134 20.30084769 -12.0625 23.75 C-12.05347656 24.73484375 -12.04445313 25.7196875 -12.03515625 26.734375 C-12.02355469 27.48203125 -12.01195313 28.2296875 -12 29 C-14.70183691 25.74486138 -15.60792271 23.54982078 -15.3984375 19.20703125 C-13.76079155 10.13575711 -7.13967376 5.08788402 0 0 Z " fill="#81263C" transform="translate(112,109)"/>
<path d="M0 0 C4.51478398 0.53115106 7.34666857 2.36620292 11 5 C11.33 4.67 11.66 4.34 12 4 C12.66 3.67 13.32 3.34 14 3 C16.5 4.8125 16.5 4.8125 19 7 C19 7.99 19 8.98 19 10 C19.94978897 12.15028304 19.94978897 12.15028304 21 14 C20.01 14 19.02 14 18 14 C19.32 15.65 20.64 17.3 22 19 C18.03508618 17.44495353 15.97471465 14.8938123 13.25 11.6875 C9.14465345 7.0400528 5.39084907 3.99491615 0 1 C0 0.67 0 0.34 0 0 Z " fill="#862B43" transform="translate(78,73)"/>
<path d="M0 0 C0.99 0.66 1.98 1.32 3 2 C1.576875 2.37125 1.576875 2.37125 0.125 2.75 C-3.06503909 3.62424236 -3.06503909 3.62424236 -3.91015625 5.82421875 C-5.31324248 8.62536223 -7.16421538 10.06457108 -9.5625 12.0625 C-13.11894764 14.93574447 -13.11894764 14.93574447 -15 19 C-14.34 19 -13.68 19 -13 19 C-11.375 21.5 -11.375 21.5 -10 24 C-11.33333333 23.33333333 -12.66666667 22.66666667 -14 22 C-14.680625 21.690625 -15.36125 21.38125 -16.0625 21.0625 C-18.09606201 19.94732083 -19.44694668 18.70835865 -21 17 C-20.175 16.505 -19.35 16.01 -18.5 15.5 C-13.49078337 12.18035287 -9.53332794 7.64454721 -5.3984375 3.328125 C-3.75215526 1.76461672 -2.06181 0.92425966 0 0 Z " fill="#872B42" transform="translate(135,66)"/>
<path d="M0 0 C0.99 0.99 1.98 1.98 3 3 C2 6 2 6 0.1875 7.0625 C-0.534375 7.371875 -1.25625 7.68125 -2 8 C-2.7425 8.37125 -3.485 8.7425 -4.25 9.125 C-5.11625 9.558125 -5.11625 9.558125 -6 10 C-4.35 7.69 -2.7 5.38 -1 3 C-1.83144531 3.75796875 -1.83144531 3.75796875 -2.6796875 4.53125 C-3.40414062 5.1809375 -4.12859375 5.830625 -4.875 6.5 C-5.59429687 7.1496875 -6.31359375 7.799375 -7.0546875 8.46875 C-9 10 -9 10 -11 10 C-12.74849671 14.3039919 -14.3770361 18.64750591 -16 23 C-16.33 23 -16.66 23 -17 23 C-16.84257542 16.01607305 -15.92466146 10.25759632 -11 5 C-8.5625 4.25 -8.5625 4.25 -6 4 C-3.95950578 2.7295036 -1.94982535 1.40568804 0 0 Z " fill="#8B384C" transform="translate(113,107)"/>
<path d="M0 0 C7.72591006 4.91648822 7.72591006 4.91648822 10 8 C10.63806754 11.40858407 10.69667709 14.78885817 10.75 18.25 C10.77964844 19.18585937 10.80929688 20.12171875 10.83984375 21.0859375 C10.91039804 23.39071092 10.96316252 25.69448168 11 28 C10.34 28 9.68 28 9 28 C7.37485532 29.45833358 7.37485532 29.45833358 6 31 C6.185625 29.906875 6.37125 28.81375 6.5625 27.6875 C7.62136565 18.88957215 6.49537732 11.61669591 2 4 C1.32493751 2.67089773 0.65605462 1.33858678 0 0 Z M8 9 C9 11 9 11 9 11 Z " fill="#8C2F48" transform="translate(128,29)"/>
<path d="M0 0 C0.33 0 0.66 0 1 0 C1.02578125 1.03640625 1.0515625 2.0728125 1.078125 3.140625 C1.13441951 4.51045801 1.19176655 5.88024805 1.25 7.25 C1.26417969 7.93191406 1.27835937 8.61382812 1.29296875 9.31640625 C1.45761724 12.70816523 1.73352654 14.66186981 3.859375 17.359375 C5.52593786 18.6366677 7.25291065 19.83527376 9 21 C8.34 22.32 7.68 23.64 7 25 C5.33333333 23.33333333 3.66666667 21.66666667 2 20 C1.2575 19.360625 0.515 18.72125 -0.25 18.0625 C-3.99228466 13.65195022 -3.09467956 7.49141441 -3 2 C-2.34 2.66 -1.68 3.32 -1 4 C-0.67 2.68 -0.34 1.36 0 0 Z M-1 8 C0 11 0 11 0 11 Z " fill="#973950" transform="translate(100,42)"/>
<path d="M0 0 C2.70613186 1.03469747 5.17722863 2.1030399 7.6875 3.5625 C14.57568399 6.55171192 21.01980335 6.57963789 28 4 C28 4.66 28 5.32 28 6 C21.8374036 11.87596401 21.8374036 11.87596401 17 12 C14.1875 11.0625 14.1875 11.0625 12 10 C12 9.34 12 8.68 12 8 C11.30132812 7.67386719 10.60265625 7.34773438 9.8828125 7.01171875 C8.97273437 6.57472656 8.06265625 6.13773437 7.125 5.6875 C6.22007812 5.25824219 5.31515625 4.82898438 4.3828125 4.38671875 C2 3 2 3 0 0 Z " fill="#8E3D4F" transform="translate(137,94)"/>
<path d="M0 0 C0 0.99 0 1.98 0 3 C-5.91935978 8.76527666 -12.75990077 11.78646084 -21 12 C-23.58532394 11.60950836 -25.55404971 10.97838012 -28 10 C-24.04102831 8.68034277 -20.131092 9 -16 9 C-13.67828408 8.96624167 -13.67828408 8.96624167 -12 8 C-11.690625 7.175 -11.38125 6.35 -11.0625 5.5 C-10.5365625 4.2625 -10.5365625 4.2625 -10 3 C-7.6875 2.3125 -7.6875 2.3125 -5 2 C-3.3207762 1.36562656 -1.64991582 0.70710678 0 0 Z " fill="#7A2D3E" transform="translate(92,91)"/>
<path d="M0 0 C3.3 0.33 6.6 0.66 10 1 C6.82312207 3.11791862 3.84304233 4.60262948 0.09765625 5.41015625 C-2.27684088 6.07784539 -4.03816138 7.06576665 -6.125 8.375 C-7.14980469 9.00535156 -7.14980469 9.00535156 -8.1953125 9.6484375 C-10.27254394 11.04755291 -10.27254394 11.04755291 -12 14 C-12.99 14 -13.98 14 -15 14 C-15.33 14.66 -15.66 15.32 -16 16 C-16 13 -16 13 -14.75 11.5703125 C-10.87724926 8.37183533 -6.95121449 5.59722847 -2.6015625 3.078125 C-0.83474546 2.0796877 -0.83474546 2.0796877 0 0 Z " fill="#762B3B" transform="translate(149,70)"/>
<path d="M0 0 C0.66 1.32 1.32 2.64 2 4 C2.66 2.68 3.32 1.36 4 0 C3.53328373 5.41390868 2.75702189 9.20517932 0 14 C-0.66 14 -1.32 14 -2 14 C-2.268125 14.598125 -2.53625 15.19625 -2.8125 15.8125 C-3.98493467 17.97224808 -5.19369282 19.35790256 -7 21 C-7.66 20.67 -8.32 20.34 -9 20 C-8.04117114 17.04361101 -7.49300902 15.35855201 -4.9375 13.5 C-2.74206097 12.10867138 -2.74206097 12.10867138 -2.25 9.3125 C-2.1675 8.549375 -2.085 7.78625 -2 7 C-1.34 7 -0.68 7 0 7 C0 4.69 0 2.38 0 0 Z " fill="#893549" transform="translate(125,44)"/>
<path d="M0 0 C0.66 0.4125 1.32 0.825 2 1.25 C2.61875 1.559375 3.2375 1.86875 3.875 2.1875 C6.58333333 3.54166667 9.29166667 4.89583333 12 6.25 C11.67 6.91 11.34 7.57 11 8.25 C10.0925 7.755 9.185 7.26 8.25 6.75 C0.57173446 3.48595999 -7.86768347 4.68868729 -15.453125 7.59375 C-15.96359375 7.8103125 -16.4740625 8.026875 -17 8.25 C-17 6.93 -17 5.61 -17 4.25 C-15.9275 4.12625 -14.855 4.0025 -13.75 3.875 C-9.75678075 3.20946346 -7.3668205 2.10426281 -4 0 C-2 -0.75 -2 -0.75 0 0 Z " fill="#923850" transform="translate(153,58.75)"/>
<path d="M0 0 C1.921875 0.375 1.921875 0.375 4 1 C6.60448835 5.16718135 6.7409704 10.23538799 6 15 C4 18.0625 4 18.0625 2 20 C0.68 19.34 -0.64 18.68 -2 18 C-1.525625 17.2575 -1.05125 16.515 -0.5625 15.75 C1.98635394 11.26401707 2.22583577 8.76422835 1 3.9375 C0.814375 3.20402344 0.62875 2.47054687 0.4375 1.71484375 C0.293125 1.14894531 0.14875 0.58304687 0 0 Z M2 14 C3 16 3 16 3 16 Z " fill="#8E2E46" transform="translate(165,78)"/>
<path d="M0 0 C-0.33 0.66 -0.66 1.32 -1 2 C-4.3 1.67 -7.6 1.34 -11 1 C-10.67 1.66 -10.34 2.32 -10 3 C-11.60032137 3.84069415 -13.20541171 4.67231505 -14.8125 5.5 C-16.15248047 6.19609375 -16.15248047 6.19609375 -17.51953125 6.90625 C-20 8 -20 8 -23 8 C-22.34 7.01 -21.68 6.02 -21 5 C-21.66 4.67 -22.32 4.34 -23 4 C-22.01 3.67 -21.02 3.34 -20 3 C-20 2.34 -20 1.68 -20 1 C-13.32021515 -0.94321014 -6.7536933 -2.2512311 0 0 Z " fill="#973C52" transform="translate(160,70)"/>
<path d="M0 0 C2.7654203 0.1929363 4.32795051 0.78924845 6.6875 2.1875 C5.68983891 4.68165272 5.00133315 5.97490335 2.75 7.5 C0.6875 8.1875 0.6875 8.1875 -2.3125 7.1875 C-4.35890898 8.20266134 -4.35890898 8.20266134 -6.375 9.6875 C-8.47265625 11.15625 -8.47265625 11.15625 -10.3125 12.1875 C-10.9725 11.8575 -11.6325 11.5275 -12.3125 11.1875 C-8.6825 8.5475 -5.0525 5.9075 -1.3125 3.1875 C-1.9725 2.5275 -2.6325 1.8675 -3.3125 1.1875 C-2.3125 0.1875 -2.3125 0.1875 0 0 Z " fill="#89384B" transform="translate(93.3125,89.8125)"/>
<path d="M0 0 C0.75732422 0.0515625 1.51464844 0.103125 2.29492188 0.15625 C3.47344727 0.25292969 3.47344727 0.25292969 4.67578125 0.3515625 C5.47306641 0.40828125 6.27035156 0.465 7.09179688 0.5234375 C9.05801706 0.66472278 11.02326949 0.81936156 12.98828125 0.9765625 C12.65828125 1.9665625 12.32828125 2.9565625 11.98828125 3.9765625 C6.61264144 5.99536173 0.61841043 5.66293268 -4.57421875 3.4765625 C-5.37859375 2.9815625 -6.18296875 2.4865625 -7.01171875 1.9765625 C-3.88828212 -0.10572858 -3.47318953 -0.26114207 0 0 Z M-2.01171875 1.9765625 C-2.01171875 2.3065625 -2.01171875 2.6365625 -2.01171875 2.9765625 C0.95828125 2.9765625 3.92828125 2.9765625 6.98828125 2.9765625 C6.98828125 2.6465625 6.98828125 2.3165625 6.98828125 1.9765625 C4.01828125 1.9765625 1.04828125 1.9765625 -2.01171875 1.9765625 Z " fill="#8F3048" transform="translate(110.01171875,139.0234375)"/>
<path d="M0 0 C8.78457657 -0.16574673 8.78457657 -0.16574673 11.43359375 2.375 C11.95050781 2.91125 12.46742187 3.4475 13 4 C15.02618279 5.54070137 17.0897268 7.01946945 19.16015625 8.5 C21 10 21 10 23 13 C20.01294639 11.60380415 17.47355108 9.93883503 14.8125 8 C10.84325789 5.28143119 7.49688337 4.13761502 2.75 3.51953125 C1.88375 3.26236328 1.88375 3.26236328 1 3 C0.67 2.01 0.34 1.02 0 0 Z " fill="#863D4E" transform="translate(68,71)"/>
<path d="M0 0 C8.36061771 0.69671814 14.42625486 3.72953671 20 10 C19.34 10.66 18.68 11.32 18 12 C15.96166576 10.7260411 13.96147874 9.38938077 12 8 C12 7.34 12 6.68 12 6 C8.15299368 3.91620491 4.09945571 2.50313376 0 1 C0 0.67 0 0.34 0 0 Z " fill="#8F324B" transform="translate(81,62)"/>
<path d="M0 0 C-0.54269531 0.18175781 -1.08539063 0.36351562 -1.64453125 0.55078125 C-2.35996094 0.80214844 -3.07539062 1.05351563 -3.8125 1.3125 C-4.87404297 1.67794922 -4.87404297 1.67794922 -5.95703125 2.05078125 C-8.07699188 2.88982443 -8.07699188 2.88982443 -9.57421875 4.60546875 C-11 6 -11 6 -14 6 C-14 6.66 -14 7.32 -14 8 C-14.66 8 -15.32 8 -16 8 C-16 8.66 -16 9.32 -16 10 C-16.99 9.67 -17.98 9.34 -19 9 C-17.58980592 5.4745148 -16.39580403 4.54737879 -13 3 C-12.2678125 2.63519531 -11.535625 2.27039063 -10.78125 1.89453125 C-10.0284375 1.53746094 -9.275625 1.18039063 -8.5 0.8125 C-7.7471875 0.44769531 -6.994375 0.08289062 -6.21875 -0.29296875 C-3.6936874 -1.09761018 -2.46129375 -0.87823436 0 0 Z " fill="#90354E" transform="translate(72,63)"/>
<path d="M0 0 C0.66 0.66 1.32 1.32 2 2 C1.34 2 0.68 2 0 2 C0 6.62 0 11.24 0 16 C-1.32 15.67 -2.64 15.34 -4 15 C-5.37995672 10.86012983 -5.05261943 7.21833309 -4 3 C-1.9375 0.9375 -1.9375 0.9375 0 0 Z M-3 5 C-3 7.64 -3 10.28 -3 13 C-2.67 13 -2.34 13 -2 13 C-2 10.36 -2 7.72 -2 5 C-2.33 5 -2.66 5 -3 5 Z " fill="#8E2C46" transform="translate(61,78)"/>
<path d="M0 0 C0.9384375 0.0103125 1.876875 0.020625 2.84375 0.03125 C4.25140625 0.01578125 4.25140625 0.01578125 5.6875 0 C8.34375 0.53125 8.34375 0.53125 12.34375 4.53125 C6.07375 4.53125 -0.19625 4.53125 -6.65625 4.53125 C-2.65625 0.53125 -2.65625 0.53125 0 0 Z " fill="#882B44" transform="translate(73.65625,60.46875)"/>
<path d="M0 0 C2 2 2 2 2.16015625 4.0234375 C2.12792969 4.79945312 2.09570312 5.57546875 2.0625 6.375 C1.94318813 9.47710865 2.12072399 12.01455122 3 15 C1.68 15 0.36 15 -1 15 C-2.50913724 10.47258828 -2.77429281 5.93573202 -1 1.5 C-0.67 1.005 -0.34 0.51 0 0 Z M-1 6 C0 10 0 10 0 10 Z " fill="#913149" transform="translate(101,123)"/>
<path d="M0 0 C-0.33 0.99 -0.66 1.98 -1 3 C-5.58555036 5.01764216 -11.35922265 4.54692578 -16 3 C-16.66 2.67 -17.32 2.34 -18 2 C-14.52176885 0.84058962 -12.54104422 1.29179116 -9 2 C-8.67 1.34 -8.34 0.68 -8 0 C-4.71585695 -0.95067299 -3.30306592 -1.10102197 0 0 Z " fill="#934254" transform="translate(81,97)"/>
<path d="M0 0 C4.5377767 0.36473855 6.77197897 3.65893393 9.5625 6.875 C10.52166477 7.9561469 11.48128694 9.0368882 12.44140625 10.1171875 C13.28574219 11.06851563 14.13007812 12.01984375 15 13 C15.98839166 14.01147512 16.98131338 15.01904252 18 16 C17.67 16.66 17.34 17.32 17 18 C16.5560791 17.55084229 16.1121582 17.10168457 15.65478516 16.63891602 C13.64746397 14.61084393 11.63629001 12.58663584 9.625 10.5625 C8.92632812 9.85544922 8.22765625 9.14839844 7.5078125 8.41992188 C6.8375 7.74638672 6.1671875 7.07285156 5.4765625 6.37890625 C4.549646 5.44413452 4.549646 5.44413452 3.60400391 4.49047852 C2.05339933 2.90951849 2.05339933 2.90951849 0 2 C0 1.34 0 0.68 0 0 Z " fill="#94374E" transform="translate(105,77)"/>
<path d="M0 0 C5 2 5 2 7.1875 3.0625 C11.37042736 4.45680912 15.61997367 4.67681359 20 5 C20 5.33 20 5.66 20 6 C14.06 6.495 14.06 6.495 8 7 C8 6.34 8 5.68 8 5 C6.865625 4.731875 5.73125 4.46375 4.5625 4.1875 C3.386875 3.795625 2.21125 3.40375 1 3 C0.67 2.01 0.34 1.02 0 0 Z " fill="#762A3B" transform="translate(139,97)"/>
<path d="M0 0 C0 3.65859288 -1.27753524 4.94596639 -3.62109375 7.63671875 C-5.25187385 9.24901975 -6.85164149 10.20431166 -9 11 C-9.33 10.01 -9.66 9.02 -10 8 C-6.7 5.36 -3.4 2.72 0 0 Z " fill="#79283C" transform="translate(112,109)"/>
<path d="M0 0 C0.66 0.33 1.32 0.66 2 1 C1.21302675 4.41021743 0.12880057 7.68885166 -1 11 C-1.99 10.67 -2.98 10.34 -4 10 C-4 8.02 -4 6.04 -4 4 C-3.34 4 -2.68 4 -2 4 C-1.34 2.68 -0.68 1.36 0 0 Z M-3 7 C-2 9 -2 9 -2 9 Z " fill="#8F344C" transform="translate(52,72)"/>
<path d="M0 0 C4.77609498 1.64178265 8.79382904 4.26546702 13 7 C12.34 7.66 11.68 8.32 11 9 C9.16136495 7.88368586 7.32920277 6.75670373 5.5 5.625 C4.4790625 4.99851562 3.458125 4.37203125 2.40625 3.7265625 C1.6121875 3.15679687 0.818125 2.58703125 0 2 C0 1.34 0 0.68 0 0 Z " fill="#8C2C43" transform="translate(123,101)"/>
<path d="M0 0 C2 1.5625 2 1.5625 3 3 C2.67 3.66 2.34 4.32 2 5 C0.35 4.67 -1.3 4.34 -3 4 C-3 3.34 -3 2.68 -3 2 C-5.97 1.67 -8.94 1.34 -12 1 C-7.37438507 -1.31280746 -4.88045039 -1.30559819 0 0 Z " fill="#8F384D" transform="translate(164,73)"/>
<path d="M0 0 C1.98 0.495 1.98 0.495 4 1 C3.34 3.31 2.68 5.62 2 8 C1.67 8 1.34 8 1 8 C0.67 9.98 0.34 11.96 0 14 C-0.33 14 -0.66 14 -1 14 C-1.027193 12.41676312 -1.04648306 10.83338938 -1.0625 9.25 C-1.07410156 8.36828125 -1.08570312 7.4865625 -1.09765625 6.578125 C-1.00826198 4.2181162 -0.66912821 2.25501476 0 0 Z " fill="#8A2640" transform="translate(97,38)"/>
<path d="M0 0 C0.99 0.33 1.98 0.66 3 1 C2.731875 1.66 2.46375 2.32 2.1875 3 C0.74294953 6.64939067 -0.62871178 10.32245433 -2 14 C-2.33 14 -2.66 14 -3 14 C-2.88512252 12.41590006 -2.75765492 10.83271037 -2.625 9.25 C-2.55539063 8.36828125 -2.48578125 7.4865625 -2.4140625 6.578125 C-2.00149945 4.00933618 -1.28839043 2.24158985 0 0 Z " fill="#C8778C" transform="translate(99,116)"/>
<path d="M0 0 C3.14688078 1.57344039 4.79965407 4.27851951 7 7 C8.65 6.34 10.3 5.68 12 5 C12 5.66 12 6.32 12 7 C9 9 9 9 5 9 C5 8.34 5 7.68 5 7 C4.01 6.67 3.02 6.34 2 6 C0 3 0 3 0 0 Z " fill="#902F47" transform="translate(107,66)"/>
<path d="M0 0 C-1.4160599 0.79275148 -2.83287553 1.58415312 -4.25 2.375 C-5.03890625 2.81585938 -5.8278125 3.25671875 -6.640625 3.7109375 C-8.73914197 4.85747823 -10.8536077 5.94649552 -13 7 C-8.96104953 0.57205329 -8.96104953 0.57205329 -5.375 -1.5625 C-3 -2 -3 -2 0 0 Z " fill="#8E3149" transform="translate(138,68)"/>
<path d="M0 0 C5.15464734 0.48324819 8.81550319 3.18610761 13 6 C12.01 6.66 11.02 7.32 10 8 C8.33055479 6.85821872 6.6645052 5.71147095 5 4.5625 C4.071875 3.92441406 3.14375 3.28632812 2.1875 2.62890625 C1.465625 2.09136719 0.74375 1.55382812 0 1 C0 0.67 0 0.34 0 0 Z " fill="#78283B" transform="translate(78,73)"/>
<path d="M0 0 C0.33 0.99 0.66 1.98 1 3 C-5.625 5.875 -5.625 5.875 -9 7 C-7.4576387 2.93377477 -4.5679954 0 0 0 Z " fill="#892640" transform="translate(68,71)"/>
<path d="M0 0 C0.66 0.33 1.32 0.66 2 1 C-1.96 4.465 -1.96 4.465 -6 8 C-6.33 7.34 -6.66 6.68 -7 6 C-7.99 5.67 -8.98 5.34 -10 5 C-9.34 4.01 -8.68 3.02 -8 2 C-7.67 2.99 -7.34 3.98 -7 5 C-4.69 3.35 -2.38 1.7 0 0 Z " fill="#873D4C" transform="translate(120,64)"/>
<path d="M0 0 C0 0.66 0 1.32 0 2 C-0.928125 2.3403125 -0.928125 2.3403125 -1.875 2.6875 C-4.61410209 4.37929835 -5.05024472 5.99244161 -6 9 C-6.99 8.34 -7.98 7.68 -9 7 C-6.79922603 2.09058114 -5.62803596 0 0 0 Z " fill="#912E48" transform="translate(108,33)"/>
<path d="M0 0 C2.475 0.495 2.475 0.495 5 1 C5.33 2.65 5.66 4.3 6 6 C4.68 6 3.36 6 2 6 C1.34 5.34 0.68 4.68 0 4 C0 2.68 0 1.36 0 0 Z " fill="#8C3148" transform="translate(90,59)"/>
<path d="M0 0 C3.87990465 1.12086134 6.28003781 2.03276853 9 5 C11.09989652 6.17574711 11.09989652 6.17574711 13 7 C9.37664543 7.20129748 7.034409 7.05556739 4 5 C1.75 2.375 1.75 2.375 0 0 Z " fill="#8C2C46" transform="translate(130,100)"/>
<path d="M0 0 C3.63 0 7.26 0 11 0 C9.515 1.485 9.515 1.485 8 3 C4.375 2.8125 4.375 2.8125 1 2 C0.67 1.34 0.34 0.68 0 0 Z " fill="#994055" transform="translate(149,103)"/>
<path d="M0 0 C0.66 0 1.32 0 2 0 C2 0.66 2 1.32 2 2 C4.64 2.33 7.28 2.66 10 3 C10 3.33 10 3.66 10 4 C8.37675914 4.22162329 6.751279 4.42689803 5.125 4.625 C3.76761719 4.79902344 3.76761719 4.79902344 2.3828125 4.9765625 C1.59648437 4.98429687 0.81015625 4.99203125 0 5 C-0.66 4.34 -1.32 3.68 -2 3 C-1.34 2.01 -0.68 1.02 0 0 Z " fill="#94364F" transform="translate(136,108)"/>
<path d="M0 0 C-2.85410334 1.50560497 -5.68124642 2.63216796 -8.75 3.625 C-9.54921875 3.88539062 -10.3484375 4.14578125 -11.171875 4.4140625 C-11.77515625 4.60742188 -12.3784375 4.80078125 -13 5 C-13 3.68 -13 2.36 -13 1 C-8.61414671 0.29826347 -4.44209357 -0.10834375 0 0 Z " fill="#974157" transform="translate(149,62)"/>
<path d="M0 0 C0.99 0 1.98 0 3 0 C3 0.66 3 1.32 3 2 C3.639375 2.12375 4.27875 2.2475 4.9375 2.375 C5.618125 2.58125 6.29875 2.7875 7 3 C7.33 3.66 7.66 4.32 8 5 C7.34 5 6.68 5 6 5 C5.67 5.99 5.34 6.98 5 8 C4.54625 7.236875 4.0925 6.47375 3.625 5.6875 C2.46175508 3.76367186 1.2470585 1.87058776 0 0 Z " fill="#86203B" transform="translate(95,86)"/>
<path d="M0 0 C2 2 2 2 2 5 C1.01 5.495 1.01 5.495 0 6 C-0.65772428 9.02934491 -0.65772428 9.02934491 -1 12 C-1.33 12 -1.66 12 -2 12 C-2.28571429 3.42857143 -2.28571429 3.42857143 0 0 Z " fill="#993F54" transform="translate(101,123)"/>
<path d="M0 0 C0 0.99 0 1.98 0 3 C-3.33333333 6 -3.33333333 6 -6 6 C-5.8125 4.125 -5.8125 4.125 -5 2 C-2.4375 0.75 -2.4375 0.75 0 0 Z " fill="#7A313F" transform="translate(119,63)"/>
<path d="M0 0 C0.66 0.33 1.32 0.66 2 1 C1.67 3.97 1.34 6.94 1 10 C0.67 10 0.34 10 0 10 C-1.125 2.25 -1.125 2.25 0 0 Z " fill="#862840" transform="translate(127,38)"/>
<path d="M0 0 C1.32 0.33 2.64 0.66 4 1 C2.35 2.98 0.7 4.96 -1 7 C-2 4 -2 4 -1.0625 1.8125 C-0.5365625 0.9153125 -0.5365625 0.9153125 0 0 Z " fill="#89344A" transform="translate(105,118)"/>
<path d="M0 0 C1.65 0.33 3.3 0.66 5 1 C5 1.66 5 2.32 5 3 C2.69 3 0.38 3 -2 3 C-1.34 2.01 -0.68 1.02 0 0 Z " fill="#8F2E47" transform="translate(111,31)"/>
<path d="M0 0 C4.95 0 9.9 0 15 0 C15 0.33 15 0.66 15 1 C9.76528314 1.75612577 5.22745859 2.2063366 0 1 C0 0.67 0 0.34 0 0 Z " fill="#933851" transform="translate(142,114)"/>
<path d="M0 0 C3.36591866 1.44253657 5.51047079 3.33264727 8 6 C5 6 5 6 3.61328125 4.6875 C2.40885417 3.125 1.20442708 1.5625 0 0 Z " fill="#8C3148" transform="translate(117,86)"/>
<path d="M0 0 C0.66 0.33 1.32 0.66 2 1 C-0.97 3.475 -0.97 3.475 -4 6 C-4.33 5.34 -4.66 4.68 -5 4 C-3.35 2.68 -1.7 1.36 0 0 Z " fill="#8C2C45" transform="translate(101,103)"/>
<path d="M0 0 C3.63 0 7.26 0 11 0 C11 0.33 11 0.66 11 1 C7.37 1 3.74 1 0 1 C0 0.67 0 0.34 0 0 Z " fill="#8A4254" transform="translate(65,75)"/>
<path d="M0 0 C3.875 1.75 3.875 1.75 5 4 C3.0625 3.6875 3.0625 3.6875 1 3 C0.67 2.01 0.34 1.02 0 0 Z " fill="#8D334A" transform="translate(89,85)"/>
<path d="M0 0 C0.33 0 0.66 0 1 0 C1 3.3 1 6.6 1 10 C0.67 10 0.34 10 0 10 C0 6.7 0 3.4 0 0 Z " fill="#98324D" transform="translate(47,82)"/>
<path d="M0 0 C3.3 0 6.6 0 10 0 C10 0.33 10 0.66 10 1 C6.7 1 3.4 1 0 1 C0 0.67 0 0.34 0 0 Z " fill="#993650" transform="translate(71,59)"/>
<path d="M0 0 C0.33 0 0.66 0 1 0 C1 3.3 1 6.6 1 10 C0.67 10 0.34 10 0 10 C0 6.7 0 3.4 0 0 Z " fill="#8E3C52" transform="translate(139,43)"/>
<path d="M0 0 C0.33 0 0.66 0 1 0 C1 2.97 1 5.94 1 9 C0.67 9 0.34 9 0 9 C0 6.03 0 3.06 0 0 Z " fill="#80243D" transform="translate(138,126)"/>
<path d="M0 0 C2.31 0.33 4.62 0.66 7 1 C7 1.33 7 1.66 7 2 C4.69 1.67 2.38 1.34 0 1 C0 0.67 0 0.34 0 0 Z " fill="#90364F" transform="translate(65,112)"/>
<path d="M0 0 C2.97 0 5.94 0 9 0 C9 0.33 9 0.66 9 1 C6.03 1 3.06 1 0 1 C0 0.67 0 0.34 0 0 Z " fill="#98344F" transform="translate(108,21)"/>
<path d="M0 0 C2 3 2 3 1.625 5.1875 C1.315625 6.0846875 1.315625 6.0846875 1 7 C0.67 4.69 0.34 2.38 0 0 Z " fill="#9C3C55" transform="translate(87,128)"/>
<path d="M0 0 C2.475 0.99 2.475 0.99 5 2 C4.34 2.66 3.68 3.32 3 4 C2.01 2.68 1.02 1.36 0 0 Z " fill="#892B43" transform="translate(124,105)"/>
<path d="M0 0 C0.33 0 0.66 0 1 0 C1 2.64 1 5.28 1 8 C0.67 8 0.34 8 0 8 C0 5.36 0 2.72 0 0 Z " fill="#8F3F55" transform="translate(179,83)"/>
<path d="M0 0 C2.64 0 5.28 0 8 0 C8 0.33 8 0.66 8 1 C5.36 1 2.72 1 0 1 C0 0.67 0 0.34 0 0 Z " fill="#7D3746" transform="translate(153,75)"/>
<path d="M0 0 C0.66 0 1.32 0 2 0 C2 0.66 2 1.32 2 2 C0.68 2.33 -0.64 2.66 -2 3 C-1.34 2.01 -0.68 1.02 0 0 Z " fill="#96354E" transform="translate(112,57)"/>
<path d="M0 0 C1.98 0.99 1.98 0.99 4 2 C3.67 2.66 3.34 3.32 3 4 C2.01 2.68 1.02 1.36 0 0 Z " fill="#8C2D46" transform="translate(129,28)"/>
<path d="M0 0 C0.66 0.66 1.32 1.32 2 2 C0.68 2.33 -0.64 2.66 -2 3 C-1.34 2.01 -0.68 1.02 0 0 Z " fill="#8E3149" transform="translate(111,105)"/>
<path d="M0 0 C1.98 0 3.96 0 6 0 C6 0.33 6 0.66 6 1 C4.02 1 2.04 1 0 1 C0 0.67 0 0.34 0 0 Z " fill="#963B51" transform="translate(66,97)"/>
<path d="M0 0 C0.99 0.33 1.98 0.66 3 1 C1.68 1.33 0.36 1.66 -1 2 C-0.67 1.34 -0.34 0.68 0 0 Z " fill="#95354E" transform="translate(158,80)"/>
<path d="M0 0 C1.65 0 3.3 0 5 0 C5 0.33 5 0.66 5 1 C3.35 1 1.7 1 0 1 C0 0.67 0 0.34 0 0 Z " fill="#8E344D" transform="translate(107,152)"/>
<path d="M0 0 C0 0.99 0 1.98 0 3 C-0.66 2.67 -1.32 2.34 -2 2 C-1.34 1.34 -0.68 0.68 0 0 Z " fill="#892B43" transform="translate(123,136)"/>
<path d="M0 0 C1.65 0 3.3 0 5 0 C5 0.33 5 0.66 5 1 C3.35 1 1.7 1 0 1 C0 0.67 0 0.34 0 0 Z " fill="#A15062" transform="translate(153,99)"/>
<path d="M0 0 C1.65 0 3.3 0 5 0 C5 0.33 5 0.66 5 1 C3.35 1 1.7 1 0 1 C0 0.67 0 0.34 0 0 Z " fill="#93384E" transform="translate(148,98)"/>
<path d="M0 0 C0.66 0.99 1.32 1.98 2 3 C1.01 2.67 0.02 2.34 -1 2 C-0.67 1.34 -0.34 0.68 0 0 Z " fill="#8D3049" transform="translate(130,96)"/>
<path d="M0 0 C0.66 0.66 1.32 1.32 2 2 C1.01 2 0.02 2 -1 2 C-0.67 1.34 -0.34 0.68 0 0 Z " fill="#8B2F47" transform="translate(97,80)"/>
<path d="M0 0 C4 1 4 1 4 1 Z " fill="#8F354E" transform="translate(116,152)"/>
<path d="M0 0 C0.99 0.33 1.98 0.66 3 1 C2.01 1.33 1.02 1.66 0 2 C0 1.34 0 0.68 0 0 Z " fill="#963951" transform="translate(104,151)"/>
<path d="M0 0 C4 1 4 1 4 1 Z " fill="#95354E" transform="translate(158,98)"/>
<path d="M0 0 C1 4 1 4 1 4 Z " fill="#8B3249" transform="translate(178,91)"/>
<path d="M0 0 C0.99 1.485 0.99 1.485 2 3 C1.34 3 0.68 3 0 3 C0 2.01 0 1.02 0 0 Z " fill="#9A3C54" transform="translate(138,60)"/>
<path d="M0 0 C4 1 4 1 4 1 Z " fill="#A1475F" transform="translate(155,60)"/>
<path d="M0 0 C3 1 3 1 3 1 Z " fill="#933850" transform="translate(121,151)"/>
<path d="M0 0 C3 1 3 1 3 1 Z " fill="#92384F" transform="translate(157,113)"/>
<path d="M0 0 C3 1 3 1 3 1 Z " fill="#8F364D" transform="translate(139,113)"/>
<path d="M0 0 C3 1 3 1 3 1 Z " fill="#903950" transform="translate(82,113)"/>
<path d="M0 0 C3 1 3 1 3 1 Z " fill="#90364E" transform="translate(86,112)"/>
<path d="M0 0 C3 1 3 1 3 1 Z " fill="#892D43" transform="translate(63,96)"/>
<path d="M0 0 C0.33 0.66 0.66 1.32 1 2 C0.34 1.67 -0.32 1.34 -1 1 C-0.67 0.67 -0.34 0.34 0 0 Z " fill="#87364A" transform="translate(89,89)"/>
<path d="M0 0 C0.33 0.66 0.66 1.32 1 2 C0.34 1.67 -0.32 1.34 -1 1 C-0.67 0.67 -0.34 0.34 0 0 Z " fill="#92334C" transform="translate(155,83)"/>
<path d="M0 0 C3 1 3 1 3 1 Z " fill="#96455A" transform="translate(159,61)"/>
<path d="M0 0 C3 1 3 1 3 1 Z " fill="#A04B61" transform="translate(140,61)"/>
<path d="M0 0 C3 1 3 1 3 1 Z " fill="#954359" transform="translate(85,61)"/>
<path d="M0 0 C3 1 3 1 3 1 Z " fill="#A2455E" transform="translate(143,60)"/>
<path d="M0 0 C3 1 3 1 3 1 Z " fill="#9C455B" transform="translate(82,60)"/>
<path d="M0 0 C3 1 3 1 3 1 Z " fill="#A44A62" transform="translate(68,60)"/>
<path d="" fill="#8C324A" transform="translate(0,0)"/>
<path d="M0 0 C3 1 3 1 3 1 Z " fill="#8B354B" transform="translate(121,23)"/>
<path d="M0 0 C3 1 3 1 3 1 Z " fill="#A2445D" transform="translate(105,22)"/>
<path d="M0 0 C2 1 2 1 2 1 Z " fill="#9F4B62" transform="translate(113,153)"/>
<path d="M0 0 C2 1 2 1 2 1 Z " fill="#8C314A" transform="translate(102,150)"/>
<path d="M0 0 C2 1 2 1 2 1 Z " fill="#8F2F47" transform="translate(125,149)"/>
<path d="M0 0 C2 1 2 1 2 1 Z " fill="#8E314B" transform="translate(100,149)"/>
<path d="M0 0 C2 1 2 1 2 1 Z " fill="#8F2E47" transform="translate(128,147)"/>
<path d="M0 0 C2 1 2 1 2 1 Z " fill="#8F2E49" transform="translate(96,146)"/>
<path d="M0 0 C2 1 2 1 2 1 Z " fill="#8D334B" transform="translate(119,139)"/>
<path d="M0 0 C2 1 2 1 2 1 Z " fill="#8A2A43" transform="translate(104,138)"/>
<path d="" fill="#892D46" transform="translate(0,0)"/>
<path d="" fill="#993B53" transform="translate(0,0)"/>
<path d="M0 0 C2 1 2 1 2 1 Z " fill="#9A3751" transform="translate(137,114)"/>
<path d="M0 0 C2 1 2 1 2 1 Z " fill="#8C3249" transform="translate(160,112)"/>
<path d="M0 0 C2 1 2 1 2 1 Z " fill="#8C3048" transform="translate(162,111)"/>
<path d="M0 0 C2 1 2 1 2 1 Z " fill="#8E334A" transform="translate(89,111)"/>
<path d="M0 0 C2 1 2 1 2 1 Z " fill="#933850" transform="translate(63,111)"/>
<path d="M0 0 C2 1 2 1 2 1 Z " fill="#8D3249" transform="translate(164,110)"/>
<path d="M0 0 C2 1 2 1 2 1 Z " fill="#8D3249" transform="translate(132,110)"/>
<path d="M0 0 C2 1 2 1 2 1 Z " fill="#8D3047" transform="translate(91,110)"/>
<path d="M0 0 C2 1 2 1 2 1 Z " fill="#8E3249" transform="translate(130,109)"/>
<path d="M0 0 C2 1 2 1 2 1 Z " fill="#8C2D45" transform="translate(93,109)"/>
<path d="M0 0 C2 1 2 1 2 1 Z " fill="#8C2D45" transform="translate(168,107)"/>
<path d="M0 0 C2 1 2 1 2 1 Z " fill="#8E3249" transform="translate(57,107)"/>
<path d="M0 0 C2 1 2 1 2 1 Z " fill="#8F3E51" transform="translate(142,103)"/>
<path d="M0 0 C2 1 2 1 2 1 Z " fill="#953850" transform="translate(177,100)"/>
<path d="M0 0 C2 1 2 1 2 1 Z " fill="#863146" transform="translate(89,98)"/>
<path d="M0 0 C2 1 2 1 2 1 Z " fill="#904053" transform="translate(146,97)"/>
<path d="" fill="#8B2D45" transform="translate(0,0)"/>
<path d="M0 0 C2 1 2 1 2 1 Z " fill="#8B354B" transform="translate(144,96)"/>
<path d="M0 0 C2 1 2 1 2 1 Z " fill="#8C2C46" transform="translate(127,96)"/>
<path d="M0 0 C2 1 2 1 2 1 Z " fill="#89344A" transform="translate(142,95)"/>
<path d="M0 0 C2 1 2 1 2 1 Z " fill="#8A3349" transform="translate(140,94)"/>
<path d="M0 0 C2 1 2 1 2 1 Z " fill="#8C3A4E" transform="translate(84,93)"/>
<path d="M0 0 C2 1 2 1 2 1 Z " fill="#8A2F45" transform="translate(137,92)"/>
<path d="M0 0 C2 1 2 1 2 1 Z " fill="#832C41" transform="translate(132,88)"/>
<path d="M0 0 C2 1 2 1 2 1 Z " fill="#8A2C45" transform="translate(100,85)"/>
<path d="M0 0 C2 1 2 1 2 1 Z " fill="#8B2C45" transform="translate(100,83)"/>
<path d="M0 0 C2 1 2 1 2 1 Z " fill="#813044" transform="translate(141,81)"/>
<path d="M0 0 C2 1 2 1 2 1 Z " fill="#863248" transform="translate(83,80)"/>
<path d="M0 0 C2 1 2 1 2 1 Z " fill="#823447" transform="translate(146,78)"/>
<path d="M0 0 C2 1 2 1 2 1 Z " fill="#89384B" transform="translate(80,78)"/>
<path d="M0 0 C2 1 2 1 2 1 Z " fill="#843848" transform="translate(148,77)"/>
<path d="M0 0 C2 1 2 1 2 1 Z " fill="#873A4B" transform="translate(78,77)"/>
<path d="M0 0 C2 1 2 1 2 1 Z " fill="#883C4C" transform="translate(76,76)"/>
<path d="M0 0 C2 1 2 1 2 1 Z " fill="#8C2842" transform="translate(63,76)"/>
<path d="M0 0 C2 1 2 1 2 1 Z " fill="#843646" transform="translate(116,70)"/>
<path d="M0 0 C2 1 2 1 2 1 Z " fill="#8F364E" transform="translate(165,64)"/>
<path d="" fill="#A2475D" transform="translate(0,0)"/>
<path d="M0 0 C2 1 2 1 2 1 Z " fill="#90384E" transform="translate(163,63)"/>
<path d="M0 0 C2 1 2 1 2 1 Z " fill="#883446" transform="translate(114,63)"/>
<path d="M0 0 C2 1 2 1 2 1 Z " fill="#963E56" transform="translate(61,63)"/>
<path d="M0 0 C2 1 2 1 2 1 Z " fill="#913B52" transform="translate(88,62)"/>
<path d="M0 0 C2 1 2 1 2 1 Z " fill="#933C53" transform="translate(63,62)"/>
<path d="M0 0 C2 1 2 1 2 1 Z " fill="#9E4960" transform="translate(65,61)"/>
<path d="" fill="#8A2F46" transform="translate(0,0)"/>
<path d="M0 0 C2 1 2 1 2 1 Z " fill="#9A3A53" transform="translate(105,59)"/>
<path d="" fill="#8C3148" transform="translate(0,0)"/>
<path d="" fill="#94354C" transform="translate(0,0)"/>
<path d="" fill="#8D324B" transform="translate(0,0)"/>
<path d="" fill="#96354E" transform="translate(0,0)"/>
<path d="" fill="#953A53" transform="translate(0,0)"/>
<path d="" fill="#8F3B51" transform="translate(0,0)"/>
<path d="" fill="#95334D" transform="translate(0,0)"/>
<path d="M0 0 C2 1 2 1 2 1 Z " fill="#93384F" transform="translate(97,26)"/>
<path d="M0 0 C2 1 2 1 2 1 Z " fill="#8E354B" transform="translate(125,25)"/>
<path d="" fill="#90324B" transform="translate(0,0)"/>
<path d="" fill="#9D3651" transform="translate(0,0)"/>
<path d="" fill="#902E46" transform="translate(0,0)"/>
<path d="" fill="#8F3049" transform="translate(0,0)"/>
<path d="" fill="#92324C" transform="translate(0,0)"/>
<path d="" fill="#8F2D48" transform="translate(0,0)"/>
<path d="" fill="#8E2E47" transform="translate(0,0)"/>
<path d="" fill="#8E2F48" transform="translate(0,0)"/>
<path d="" fill="#8E2E47" transform="translate(0,0)"/>
<path d="" fill="#90314A" transform="translate(0,0)"/>
<path d="" fill="#96344E" transform="translate(0,0)"/>
<path d="" fill="#90314A" transform="translate(0,0)"/>
<path d="" fill="#8D354B" transform="translate(0,0)"/>
<path d="" fill="#8A3048" transform="translate(0,0)"/>
<path d="" fill="#93334D" transform="translate(0,0)"/>
<path d="" fill="#95354E" transform="translate(0,0)"/>
<path d="" fill="#95344E" transform="translate(0,0)"/>
<path d="" fill="#8A3048" transform="translate(0,0)"/>
<path d="" fill="#90324B" transform="translate(0,0)"/>
<path d="" fill="#95334D" transform="translate(0,0)"/>
<path d="" fill="#95344E" transform="translate(0,0)"/>
<path d="" fill="#853045" transform="translate(0,0)"/>
<path d="" fill="#873147" transform="translate(0,0)"/>
<path d="" fill="#95344E" transform="translate(0,0)"/>
<path d="" fill="#95344E" transform="translate(0,0)"/>
<path d="" fill="#863146" transform="translate(0,0)"/>
<path d="" fill="#96344E" transform="translate(0,0)"/>
<path d="" fill="#8C3249" transform="translate(0,0)"/>
<path d="" fill="#843045" transform="translate(0,0)"/>
<path d="" fill="#803245" transform="translate(0,0)"/>
<path d="" fill="#8B2E45" transform="translate(0,0)"/>
<path d="" fill="#94344D" transform="translate(0,0)"/>
<path d="" fill="#8D314A" transform="translate(0,0)"/>
<path d="" fill="#872E43" transform="translate(0,0)"/>
<path d="" fill="#8F3249" transform="translate(0,0)"/>
<path d="" fill="#8F324B" transform="translate(0,0)"/>
<path d="" fill="#8B2F46" transform="translate(0,0)"/>
<path d="" fill="#882D45" transform="translate(0,0)"/>
<path d="" fill="#8E334A" transform="translate(0,0)"/>
<path d="" fill="#8A3248" transform="translate(0,0)"/>
<path d="" fill="#8E2E46" transform="translate(0,0)"/>
<path d="" fill="#8C2F47" transform="translate(0,0)"/>
<path d="" fill="#8F344B" transform="translate(0,0)"/>
<path d="" fill="#8F2F48" transform="translate(0,0)"/>
<path d="" fill="#882F47" transform="translate(0,0)"/>
<path d="" fill="#8E2F46" transform="translate(0,0)"/>
<path d="" fill="#8E2F46" transform="translate(0,0)"/>
<path d="" fill="#8E2B46" transform="translate(0,0)"/>
<path d="" fill="#8D2E45" transform="translate(0,0)"/>
<path d="" fill="#8B2D44" transform="translate(0,0)"/>
<path d="" fill="#8D2D45" transform="translate(0,0)"/>
<path d="" fill="#853346" transform="translate(0,0)"/>
<path d="" fill="#863247" transform="translate(0,0)"/>
<path d="" fill="#91364E" transform="translate(0,0)"/>
<path d="" fill="#892E46" transform="translate(0,0)"/>
<path d="" fill="#863247" transform="translate(0,0)"/>
<path d="" fill="#882F46" transform="translate(0,0)"/>
<path d="" fill="#8A2D46" transform="translate(0,0)"/>
<path d="" fill="#8C2D46" transform="translate(0,0)"/>
<path d="" fill="#8C2E45" transform="translate(0,0)"/>
<path d="" fill="#94344D" transform="translate(0,0)"/>
<path d="" fill="#892B44" transform="translate(0,0)"/>
<path d="" fill="#8D2F48" transform="translate(0,0)"/>
<path d="" fill="#8B2B43" transform="translate(0,0)"/>
<path d="" fill="#9B3650" transform="translate(0,0)"/>
<path d="" fill="#8A3248" transform="translate(0,0)"/>
<path d="" fill="#8A2E47" transform="translate(0,0)"/>
<path d="" fill="#8B3048" transform="translate(0,0)"/>
<path d="" fill="#8A2E47" transform="translate(0,0)"/>
<path d="" fill="#8B364B" transform="translate(0,0)"/>
<path d="" fill="#882C43" transform="translate(0,0)"/>
<path d="" fill="#8D384E" transform="translate(0,0)"/>
<path d="" fill="#892D43" transform="translate(0,0)"/>
<path d="" fill="#90324B" transform="translate(0,0)"/>
<path d="" fill="#92334C" transform="translate(0,0)"/>
<path d="" fill="#90324B" transform="translate(0,0)"/>
<path d="" fill="#8A2E44" transform="translate(0,0)"/>
<path d="" fill="#8C2F46" transform="translate(0,0)"/>
<path d="" fill="#873248" transform="translate(0,0)"/>
<path d="" fill="#95344E" transform="translate(0,0)"/>
<path d="" fill="#8B2D45" transform="translate(0,0)"/>
<path d="" fill="#8B2E46" transform="translate(0,0)"/>
<path d="" fill="#90324B" transform="translate(0,0)"/>
<path d="" fill="#802C40" transform="translate(0,0)"/>
<path d="" fill="#8A2C44" transform="translate(0,0)"/>
<path d="" fill="#8B3048" transform="translate(0,0)"/>
<path d="" fill="#95334D" transform="translate(0,0)"/>
<path d="" fill="#852D43" transform="translate(0,0)"/>
<path d="" fill="#892942" transform="translate(0,0)"/>
<path d="" fill="#892D45" transform="translate(0,0)"/>
<path d="" fill="#A6425C" transform="translate(0,0)"/>
<path d="" fill="#8B2A43" transform="translate(0,0)"/>
<path d="" fill="#95354E" transform="translate(0,0)"/>
<path d="" fill="#8A2841" transform="translate(0,0)"/>
<path d="" fill="#882943" transform="translate(0,0)"/>
<path d="" fill="#8D324A" transform="translate(0,0)"/>
<path d="" fill="#892C44" transform="translate(0,0)"/>
<path d="" fill="#8B3349" transform="translate(0,0)"/>
<path d="" fill="#7E2F42" transform="translate(0,0)"/>
<path d="" fill="#8D374C" transform="translate(0,0)"/>
<path d="" fill="#8D3049" transform="translate(0,0)"/>
<path d="" fill="#8A3349" transform="translate(0,0)"/>
<path d="" fill="#96354F" transform="translate(0,0)"/>
<path d="" fill="#92324B" transform="translate(0,0)"/>
<path d="" fill="#8D3147" transform="translate(0,0)"/>
<path d="" fill="#873248" transform="translate(0,0)"/>
<path d="" fill="#95334D" transform="translate(0,0)"/>
<path d="" fill="#8E2F46" transform="translate(0,0)"/>
<path d="" fill="#882E43" transform="translate(0,0)"/>
<path d="" fill="#95354E" transform="translate(0,0)"/>
<path d="" fill="#8E2E46" transform="translate(0,0)"/>
<path d="" fill="#892B42" transform="translate(0,0)"/>
<path d="" fill="#89364B" transform="translate(0,0)"/>
<path d="" fill="#95344E" transform="translate(0,0)"/>
<path d="" fill="#993650" transform="translate(0,0)"/>
<path d="" fill="#892A41" transform="translate(0,0)"/>
<path d="" fill="#8D2F47" transform="translate(0,0)"/>
<path d="" fill="#8C2E45" transform="translate(0,0)"/>
<path d="" fill="#892941" transform="translate(0,0)"/>
<path d="" fill="#96354F" transform="translate(0,0)"/>
<path d="" fill="#8B2540" transform="translate(0,0)"/>
<path d="" fill="#94344D" transform="translate(0,0)"/>
<path d="" fill="#8E2D46" transform="translate(0,0)"/>
<path d="" fill="#8A2B43" transform="translate(0,0)"/>
<path d="" fill="#95344D" transform="translate(0,0)"/>
<path d="" fill="#8D354A" transform="translate(0,0)"/>
<path d="" fill="#923249" transform="translate(0,0)"/>
<path d="" fill="#85394A" transform="translate(0,0)"/>
<path d="" fill="#8C2F47" transform="translate(0,0)"/>
<path d="" fill="#8E2F48" transform="translate(0,0)"/>
<path d="" fill="#873446" transform="translate(0,0)"/>
<path d="" fill="#96344E" transform="translate(0,0)"/>
<path d="" fill="#91324B" transform="translate(0,0)"/>
<path d="" fill="#8D2F49" transform="translate(0,0)"/>
<path d="" fill="#883548" transform="translate(0,0)"/>
<path d="" fill="#8E314A" transform="translate(0,0)"/>
<path d="" fill="#883549" transform="translate(0,0)"/>
<path d="" fill="#8D2F46" transform="translate(0,0)"/>
<path d="" fill="#91324B" transform="translate(0,0)"/>
<path d="" fill="#93344D" transform="translate(0,0)"/>
<path d="" fill="#892E47" transform="translate(0,0)"/>
<path d="" fill="#873448" transform="translate(0,0)"/>
<path d="" fill="#8B3047" transform="translate(0,0)"/>
<path d="" fill="#8C334B" transform="translate(0,0)"/>
<path d="" fill="#833145" transform="translate(0,0)"/>
<path d="" fill="#843B48" transform="translate(0,0)"/>
<path d="" fill="#8A334C" transform="translate(0,0)"/>
<path d="" fill="#91334C" transform="translate(0,0)"/>
<path d="" fill="#903A51" transform="translate(0,0)"/>
<path d="" fill="#8E394B" transform="translate(0,0)"/>
<path d="" fill="#913A52" transform="translate(0,0)"/>
<path d="" fill="#95354E" transform="translate(0,0)"/>
<path d="" fill="#94364E" transform="translate(0,0)"/>
<path d="" fill="#923B51" transform="translate(0,0)"/>
<path d="" fill="#97354F" transform="translate(0,0)"/>
<path d="" fill="#95354E" transform="translate(0,0)"/>
<path d="" fill="#8A3149" transform="translate(0,0)"/>
<path d="" fill="#8A3249" transform="translate(0,0)"/>
<path d="" fill="#9A3750" transform="translate(0,0)"/>
<path d="" fill="#95354E" transform="translate(0,0)"/>
<path d="" fill="#95344E" transform="translate(0,0)"/>
<path d="" fill="#90344C" transform="translate(0,0)"/>
<path d="" fill="#90334B" transform="translate(0,0)"/>
<path d="" fill="#8A3148" transform="translate(0,0)"/>
<path d="" fill="#95344E" transform="translate(0,0)"/>
<path d="" fill="#93344D" transform="translate(0,0)"/>
<path d="" fill="#8A3048" transform="translate(0,0)"/>
<path d="" fill="#96354E" transform="translate(0,0)"/>
<path d="" fill="#90324B" transform="translate(0,0)"/>
<path d="" fill="#95354F" transform="translate(0,0)"/>
<path d="" fill="#8A3148" transform="translate(0,0)"/>
<path d="" fill="#8D2A45" transform="translate(0,0)"/>
<path d="" fill="#99344F" transform="translate(0,0)"/>
<path d="" fill="#90334C" transform="translate(0,0)"/>
<path d="" fill="#8B2C45" transform="translate(0,0)"/>
<path d="" fill="#94344D" transform="translate(0,0)"/>
<path d="" fill="#8F354D" transform="translate(0,0)"/>
<path d="" fill="#892B44" transform="translate(0,0)"/>
<path d="" fill="#8B3149" transform="translate(0,0)"/>
<path d="" fill="#892E46" transform="translate(0,0)"/>
<path d="" fill="#8D344A" transform="translate(0,0)"/>
<path d="" fill="#943B53" transform="translate(0,0)"/>
<path d="" fill="#96344E" transform="translate(0,0)"/>
<path d="" fill="#97344F" transform="translate(0,0)"/>
<path d="" fill="#8B3048" transform="translate(0,0)"/>
</svg>
